<?xml version="1.0" encoding="UTF-8"?>
<svg id="Ebene_1" data-name="Ebene 1" xmlns="http://www.w3.org/2000/svg" viewBox="0 0 635.04 132.88">
  <defs>
    <style>
      .cls-1 {
        fill: #2e282a;
      }
    </style>
  </defs>
  <path class="cls-1" d="M0,130.34v-3.8c14.71,0,16.77-2.85,16.77-12.5V20.09c0-9.65-2.06-12.5-16.77-12.5v-3.8h45.56c33.22,0,63.11,19.77,63.11,63.91s-27.68,62.64-61.53,62.64H0ZM90,68.81c0-36.22-19.77-58.53-44.61-58.53-3.48,0-6.49.47-7.75.95-2.06.48-3.01,1.9-3.01,4.11v101.71c0,5.22,3.64,6.8,10.6,6.8,30.21,0,44.76-23.89,44.76-55.05Z"/>
  <path class="cls-1" d="M131.36,122.28c-2.53-2.53-4.43-2.37-5.06,1.27l-1.42,7.28h-3.96l.32-47.3h4.11c1.11,22.93,13.13,42.71,30.53,42.71,13.6,0,19.46-10.6,19.46-20.41,0-14.55-11.23-23.89-24.2-33.69-15.82-12.02-29.1-21.99-29.1-40.66S135.64,1.27,153.51,1.27c9.18,0,15.5,2.85,21.04,8.07,2.69,2.37,4.9,1.74,5.38-1.74l.79-4.75h3.8l1.9,41.6h-3.95c-1.58-19.46-11.08-36.7-27.84-36.7-11.7,0-18.03,8.54-18.03,18.35,0,12.34,9.17,19.93,23.88,31.01,16.45,12.18,29.42,23.09,29.42,42.55s-14.24,33.22-33.69,33.22c-9.65,0-18.51-4.43-24.84-10.6Z"/>
  <path class="cls-1" d="M244.83,122.28c-2.53-2.53-4.43-2.37-5.06,1.27l-1.42,7.28h-3.96l.32-47.3h4.11c1.11,22.93,13.13,42.71,30.53,42.71,13.6,0,19.46-10.6,19.46-20.41,0-14.55-11.23-23.89-24.2-33.69-15.82-12.02-29.1-21.99-29.1-40.66s13.6-30.21,31.48-30.21c9.18,0,15.5,2.85,21.04,8.07,2.69,2.37,4.9,1.74,5.38-1.74l.79-4.75h3.8l1.9,41.6h-3.95c-1.58-19.46-11.08-36.7-27.84-36.7-11.7,0-18.03,8.54-18.03,18.35,0,12.34,9.18,19.93,23.89,31.01,16.45,12.18,29.42,23.09,29.42,42.55s-14.24,33.22-33.69,33.22c-9.65,0-18.51-4.43-24.84-10.6Z"/>
  <path class="cls-1" d="M358.97,94.91c0,24.68-4.9,37.97-20.41,37.97-12.34,0-18.82-7.44-18.82-29.58v-50.3h-11.08v-5.85c11.55-.32,18.82-8.86,20.41-23.73h5.7v23.09h18.98v6.49h-18.66v46.19c0,14.08,1.42,23.41,8.86,23.41s10.6-8.86,10.6-27.68h4.43Z"/>
  <path class="cls-1" d="M415.37,130.19l-.32-13.45-.47-.16c-5.38,8.54-12.97,16.3-24.2,16.3s-17.24-8.86-17.24-22.78v-44.61c0-10.28-.48-12.18-10.12-9.18l-1.11-3.48,24.36-7.91,2.22,2.06v61.53c0,9.33,2.85,13.76,8.86,13.76,6.33,0,12.66-5.38,17.72-12.18v-44.61c0-10.28-.32-12.18-10.12-9.18l-1.11-3.48,24.52-7.91,2.06,2.06v64.54c0,10.6.32,12.66,10.12,9.02l1.42,3.64-23.41,8.7-3.16-2.69Z"/>
  <path class="cls-1" d="M519.19,124.02l-23.41,8.86-3.32-2.69v-12.97h-.63c-4.11,9.33-11.23,15.66-21.51,15.66-15.19,0-24.52-16.93-24.52-41.92,0-27.68,11.39-47.3,28.79-47.3,7.91,0,14.4,3.32,17.87,8.86v-29.58c0-10.28.16-12.18-9.33-7.59l-1.58-3.32,24.2-12.02,2.06,2.22v109.3c0,10.6.16,12.66,9.97,8.86l1.43,3.64ZM492.46,109.31v-29.26c0-15.5-4.75-28.15-14.55-28.15-11.07,0-15.82,15.5-15.82,35.27s4.43,34.64,14.87,34.64c6.96,0,11.55-5.22,15.5-12.5Z"/>
  <path class="cls-1" d="M552.29,114.05c0,10.12,1.58,12.5,11.23,12.5v3.8h-37.65v-3.8c9.65,0,11.23-2.37,11.23-12.5v-48.72c0-10.6-.16-12.81-9.33-9.02l-1.42-3.64,23.25-9.33,2.69,2.37v68.34ZM533.15,18.51c0-5.69,4.27-9.81,10.28-9.81s10.12,4.11,10.12,9.81-4.27,9.65-10.12,9.65-10.28-4.11-10.28-9.65Z"/>
  <path class="cls-1" d="M567.02,88.74c0-25.47,12.5-45.08,34.01-45.08,20.41,0,34.01,18.19,34.01,44.13s-12.65,45.08-34.01,45.08-34.01-18.19-34.01-44.13ZM619.07,97.12c0-21.51-6.48-46.51-20.41-46.51-11.23,0-15.82,14.87-15.82,28.79,0,21.51,6.64,46.51,20.56,46.51,11.23,0,15.66-14.87,15.66-28.79Z"/>
</svg>