<?xml version="1.0" encoding="UTF-8"?>
<svg id="Ebene_1" xmlns="http://www.w3.org/2000/svg" version="1.1" viewBox="0 0 635 132.9">
  <!-- Generator: Adobe Illustrator 29.7.1, SVG Export Plug-In . SVG Version: 2.1.1 Build 8)  -->
  <defs>
    <style>
      .st0 {
        fill: #fff;
      }
    </style>
  </defs>
  <path class="st0" d="M0,130.3v-3.8c14.7,0,16.8-2.8,16.8-12.5V20.1c0-9.6-2.1-12.5-16.8-12.5v-3.8h45.6c33.2,0,63.1,19.8,63.1,63.9s-27.7,62.6-61.5,62.6H0ZM90,68.8c0-36.2-19.8-58.5-44.6-58.5s-6.5.5-7.8.9c-2.1.5-3,1.9-3,4.1v101.7c0,5.2,3.6,6.8,10.6,6.8,30.2,0,44.8-23.9,44.8-55h0Z"/>
  <path class="st0" d="M131.4,122.3c-2.5-2.5-4.4-2.4-5.1,1.3l-1.4,7.3h-4l.3-47.3h4.1c1.1,22.9,13.1,42.7,30.5,42.7s19.5-10.6,19.5-20.4c0-14.6-11.2-23.9-24.2-33.7-15.8-12-29.1-22-29.1-40.7S135.6,1.3,153.5,1.3s15.5,2.8,21,8.1c2.7,2.4,4.9,1.7,5.4-1.7l.8-4.8h3.8l1.9,41.6h-3.9c-1.6-19.5-11.1-36.7-27.8-36.7s-18,8.5-18,18.4,9.2,19.9,23.9,31c16.4,12.2,29.4,23.1,29.4,42.5s-14.2,33.2-33.7,33.2-18.5-4.4-24.8-10.6h0Z"/>
  <path class="st0" d="M244.8,122.3c-2.5-2.5-4.4-2.4-5.1,1.3l-1.4,7.3h-4l.3-47.3h4.1c1.1,22.9,13.1,42.7,30.5,42.7s19.5-10.6,19.5-20.4c0-14.6-11.2-23.9-24.2-33.7-15.8-12-29.1-22-29.1-40.7s13.6-30.2,31.5-30.2,15.5,2.8,21,8.1c2.7,2.4,4.9,1.7,5.4-1.7l.8-4.8h3.8l1.9,41.6h-4c-1.6-19.5-11.1-36.7-27.8-36.7s-18,8.5-18,18.4,9.2,19.9,23.9,31c16.5,12.2,29.4,23.1,29.4,42.5s-14.2,33.2-33.7,33.2-18.5-4.4-24.8-10.6h0Z"/>
  <path class="st0" d="M359,94.9c0,24.7-4.9,38-20.4,38s-18.8-7.4-18.8-29.6v-50.3h-11.1v-5.8c11.5-.3,18.8-8.9,20.4-23.7h5.7v23.1h19v6.5h-18.7v46.2c0,14.1,1.4,23.4,8.9,23.4s10.6-8.9,10.6-27.7h4.4,0Z"/>
  <path class="st0" d="M415.4,130.2l-.3-13.4-.5-.2c-5.4,8.5-13,16.3-24.2,16.3s-17.2-8.9-17.2-22.8v-44.6c0-10.3-.5-12.2-10.1-9.2l-1.1-3.5,24.4-7.9,2.2,2.1v61.5c0,9.3,2.9,13.8,8.9,13.8s12.7-5.4,17.7-12.2v-44.6c0-10.3-.3-12.2-10.1-9.2l-1.1-3.5,24.5-7.9,2.1,2.1v64.5c0,10.6.3,12.7,10.1,9l1.4,3.6-23.4,8.7-3.2-2.7h0Z"/>
  <path class="st0" d="M519.2,124l-23.4,8.9-3.3-2.7v-13h-.6c-4.1,9.3-11.2,15.7-21.5,15.7-15.2,0-24.5-16.9-24.5-41.9s11.4-47.3,28.8-47.3,14.4,3.3,17.9,8.9v-29.6c0-10.3.2-12.2-9.3-7.6l-1.6-3.3,24.2-12,2.1,2.2v109.3c0,10.6.2,12.7,10,8.9l1.4,3.6h0ZM492.5,109.3v-29.3c0-15.5-4.8-28.2-14.5-28.2s-15.8,15.5-15.8,35.3,4.4,34.6,14.9,34.6,11.5-5.2,15.5-12.5Z"/>
  <path class="st0" d="M552.3,114c0,10.1,1.6,12.5,11.2,12.5v3.8h-37.7v-3.8c9.7,0,11.2-2.4,11.2-12.5v-48.7c0-10.6-.2-12.8-9.3-9l-1.4-3.6,23.2-9.3,2.7,2.4v68.3h0ZM533.2,18.5c0-5.7,4.3-9.8,10.3-9.8s10.1,4.1,10.1,9.8-4.3,9.6-10.1,9.6-10.3-4.1-10.3-9.6Z"/>
  <path class="st0" d="M567,88.7c0-25.5,12.5-45.1,34-45.1s34,18.2,34,44.1-12.7,45.1-34,45.1-34-18.2-34-44.1ZM619.1,97.1c0-21.5-6.5-46.5-20.4-46.5s-15.8,14.9-15.8,28.8c0,21.5,6.6,46.5,20.6,46.5s15.7-14.9,15.7-28.8h0Z"/>
</svg>