<?xml version="1.0" standalone="no"?>
<!DOCTYPE svg PUBLIC "-//W3C//DTD SVG 1.1//EN" "http://www.w3.org/Graphics/SVG/1.1/DTD/svg11.dtd" >
<svg xmlns="http://www.w3.org/2000/svg" xmlns:xlink="http://www.w3.org/1999/xlink" version="1.1">
<metadata></metadata>
<defs>
<font id="adelle_sansextrabold" horiz-adv-x="1167" >
<font-face units-per-em="2048" ascent="1546" descent="-502" />
<missing-glyph horiz-adv-x="307" />
<glyph unicode="&#xfb01;" horiz-adv-x="1325" d="M0 821v254h137v99q0 203 106 300t294 97q61 0 124.5 -12t92.5 -25l-15 -248q-70 17 -102 17q-64 0 -90.5 -33.5t-26.5 -122.5v-72h711v-1075h-383v821h-328v-821h-383v821h-137zM821 1397q0 104 56 158.5t161 54.5t162 -54.5t57 -158.5t-57.5 -160.5t-161.5 -56.5 t-160.5 56.5t-56.5 160.5z" />
<glyph unicode="&#xfb02;" horiz-adv-x="1325" d="M0 821v254h137v99q0 203 108.5 300t299.5 97q66 0 129 -12.5t94 -26.5l-14 -248q-64 19 -109 19q-66 0 -95.5 -34t-29.5 -122v-72h236v-254h-236v-821h-383v821h-137zM848 0v1546h383v-1546h-383z" />
<glyph unicode="&#xfb03;" horiz-adv-x="2037" d="M0 821v254h137v99q0 203 108.5 300t299.5 97q72 0 141.5 -14t101.5 -29l-14 -248q-81 23 -125 23q-66 0 -97.5 -34.5t-31.5 -121.5v-72h328v99q0 203 105.5 300t293.5 97q61 0 124.5 -12t92.5 -25l-14 -248q-70 17 -102 17q-64 0 -90.5 -33.5t-26.5 -122.5v-72h711v-1075 h-383v821h-328v-821h-383v821h-328v-821h-383v821h-137zM1532 1397q0 104 56 158.5t161 54.5t162 -54.5t57 -158.5t-57.5 -160.5t-161.5 -56.5t-160.5 56.5t-56.5 160.5z" />
<glyph unicode="&#xfb04;" horiz-adv-x="2037" d="M0 821v254h137v99q0 203 108.5 300t299.5 97q72 0 141.5 -14t101.5 -29l-14 -248q-81 23 -125 23q-66 0 -97.5 -34.5t-31.5 -121.5v-72h328v99q0 203 108.5 300t298.5 97q66 0 129.5 -12.5t94.5 -26.5l-15 -248q-64 19 -108 19q-66 0 -95.5 -34t-29.5 -122v-72h235v-254 h-235v-821h-383v821h-328v-821h-383v821h-137zM1559 0v1546h383v-1546h-383z" />
<glyph horiz-adv-x="0" />
<glyph horiz-adv-x="682" />
<glyph unicode=" "  horiz-adv-x="307" />
<glyph unicode="&#x09;" horiz-adv-x="307" />
<glyph unicode="&#xa0;" horiz-adv-x="307" />
<glyph unicode="!" horiz-adv-x="686" d="M133 156q0 182 211 182q103 0 156 -46.5t53 -135.5q0 -88 -52.5 -134.5t-156.5 -46.5q-211 0 -211 181zM139 1483h412l-41 -1069h-330z" />
<glyph unicode="&#x22;" horiz-adv-x="890" d="M61 952v531h332v-531h-332zM498 952v531h331v-531h-331z" />
<glyph unicode="#" horiz-adv-x="1243" d="M55 279l51 251h173l28 189h-186l51 252h172l41 280h252l-41 -280h135l41 280h252l-41 -280h191l-50 -252h-178l-28 -189h190l-49 -251h-180l-43 -279h-252l43 279h-135l-43 -279h-252l43 279h-185zM530 530h136l28 189h-135z" />
<glyph unicode="$" horiz-adv-x="1181" d="M20 408l328 49q13 -107 61 -159t162 -52q88 0 138.5 33t50.5 100q0 24 -7.5 44.5t-17 35t-31 29t-36.5 23t-47.5 20t-49.5 17t-57 16.5q-21 6 -31 9q-52 15 -83.5 25.5t-80.5 30.5t-79.5 41t-66 54t-55.5 71.5t-34 92.5t-14 118q0 162 92.5 268.5t245.5 150.5v197h323 v-180q341 -51 354 -393l-337 -37q-11 95 -45 133.5t-117 38.5q-72 0 -111 -30.5t-39 -84.5q0 -33 15 -60t36.5 -45t60 -35t70 -27.5t82.5 -24.5q53 -15 84 -25t81 -31t81 -41t67.5 -53.5t57 -71.5t35 -92t14.5 -117q0 -193 -115.5 -308.5t-295.5 -147.5v-160h-324v160 q-54 11 -100 28t-93 49.5t-81 77t-58.5 112t-32.5 151.5z" />
<glyph unicode="%" horiz-adv-x="1738" d="M61 1126q0 183 91 283t280 100q352 0 352 -356q0 -183 -93 -285t-275 -102q-355 0 -355 360zM248 -25l897 1508h330l-895 -1508h-332zM340 1143q0 -100 21 -141t65 -41q43 0 63.5 41.5t20.5 142.5q0 92 -20 130t-64 38t-65 -38t-21 -132zM954 336q0 183 91 283t280 100 q352 0 352 -357q0 -183 -93 -285t-275 -102q-355 0 -355 361zM1233 352q0 -100 21 -141t65 -41q43 0 63.5 41.5t20.5 142.5q0 92 -20 130t-64 38t-65 -38t-21 -132z" />
<glyph unicode="&#x26;" horiz-adv-x="1617" d="M72 406q0 150 74.5 250t236.5 161q-66 110 -66 225q0 49 13 103q30 118 123.5 190.5t232.5 96.5q52 8 113 8q81 0 149 -16.5t123.5 -51t87 -94.5t31.5 -139q0 -39 -7 -73.5t-28.5 -77t-58 -80t-99 -78t-147.5 -74.5q112 -146 223 -269q37 95 33 263h338 q11 -246 -125 -435q67 -28 127 -28q40 0 67 8l33 -283q-85 -26 -182 -26q-172 0 -326 92q-140 -103 -417 -103q-135 0 -241.5 33.5t-173 93t-100.5 136.5t-34 168zM465 446q0 -38 4 -49q14 -75 73.5 -120.5t159.5 -45.5q60 0 103 17q-146 124 -295 346q-45 -61 -45 -148z M688 1108q0 -66 51 -156l17 9q66 35 93.5 70.5t27.5 86.5q0 42 -23.5 66t-67.5 24q-43 0 -70.5 -26t-27.5 -74z" />
<glyph unicode="'" horiz-adv-x="454" d="M61 952v531h332v-531h-332z" />
<glyph unicode="(" horiz-adv-x="819" d="M92 573q0 258 85.5 474t246.5 436h395q-72 -102 -122.5 -190.5t-98 -200.5t-72 -240t-24.5 -270q0 -137 24.5 -265t71.5 -242.5t92.5 -199.5t110.5 -188h-404q-132 180 -218.5 406t-86.5 480z" />
<glyph unicode=")" horiz-adv-x="819" d="M0 -313q72 102 122.5 190.5t98 200.5t72 240t24.5 270q0 136 -24.5 264t-71.5 242.5t-92.5 200t-110.5 188.5h404q131 -179 218 -406.5t87 -480.5q0 -258 -85.5 -473.5t-246.5 -435.5h-395z" />
<glyph unicode="*" horiz-adv-x="983" d="M74 1184l55 178l227 -55l31 239h184l31 -239l221 57l54 -178l-203 -105l137 -209l-145 -110l-189 178l-184 -184l-148 112l136 213z" />
<glyph unicode="+" d="M180 522v283h256v274h291v-274h258v-283h-258v-282h-291v282h-256z" />
<glyph unicode="," horiz-adv-x="571" d="M0 -262l137 561h393l-219 -588z" />
<glyph unicode="-" horiz-adv-x="636" d="M41 440v308h555v-308h-555z" />
<glyph unicode="." horiz-adv-x="585" d="M72 178q0 205 223 205q219 0 219 -205q0 -203 -219 -203q-116 0 -169.5 49.5t-53.5 153.5z" />
<glyph unicode="/" horiz-adv-x="985" d="M20 -188l576 1734h348l-573 -1734h-351z" />
<glyph unicode="0" horiz-adv-x="1226" d="M51 750q0 392 135.5 575.5t440.5 183.5q155 0 261 -45.5t169.5 -141.5t91 -232t27.5 -330q0 -409 -131.5 -597t-438.5 -188q-154 0 -260.5 47.5t-171.5 146.5t-94 240.5t-29 340.5zM461 748q0 -195 13 -300.5t46 -154.5t94 -49q87 0 120.5 110t33.5 396 q0 280 -30.5 382.5t-116.5 102.5q-59 0 -93 -43t-50.5 -149t-16.5 -295z" />
<glyph unicode="1" horiz-adv-x="940" d="M53 1313q298 23 439 170h274v-1483h-383v1067q-47 -23 -152.5 -41t-162.5 -18z" />
<glyph unicode="2" horiz-adv-x="1134" d="M57 1085q10 89 42 161t80.5 120.5t113 81t135.5 47t152 14.5q235 0 353 -102.5t118 -286.5q0 -53 -7.5 -97.5t-29.5 -92t-42.5 -83t-67 -91.5t-81 -95.5t-104.5 -115.5q-42 -46 -64 -70l-139 -145v-11h557v-319h-997v315l299 336q160 181 208 249q85 120 85 210 q0 121 -125 121q-146 0 -170 -201z" />
<glyph unicode="3" horiz-adv-x="1153" d="M25 369l331 61q21 -180 179 -180q75 0 120 49t45 143q0 99 -46 143t-150 44h-154v256h96q114 0 174 57t60 154q0 141 -129 141q-73 0 -112.5 -41t-57.5 -129l-322 61q20 107 71 183.5t124 118.5t154 60.5t176 18.5q227 0 349 -93.5t122 -272.5q0 -125 -78 -215.5 t-193 -130.5v-9q153 -38 229.5 -126t76.5 -240q0 -205 -155 -326t-398 -121q-74 0 -140.5 11.5t-130.5 40t-112.5 72.5t-83 113t-45.5 157z" />
<glyph unicode="4" horiz-adv-x="1275" d="M61 313v262l560 908h462v-873h162v-297h-162v-313h-370v313h-652zM383 610h330v547z" />
<glyph unicode="5" horiz-adv-x="1169" d="M25 375l327 57q18 -176 178 -176q81 0 131 57t50 164q0 191 -154 191q-95 0 -188 -93l-246 99l53 809h823v-314h-555l-32 -321q112 98 286 98q178 0 282.5 -113.5t104.5 -338.5q0 -162 -76 -281.5t-201.5 -178.5t-283.5 -59q-97 0 -177 20.5t-149 65.5t-114 124.5 t-59 189.5z" />
<glyph unicode="6" horiz-adv-x="1198" d="M78 711q0 80 8 155.5t27.5 156.5t49.5 150.5t78.5 132t110 107t147 70.5t187.5 26q67 0 123 -9t110.5 -33.5t95.5 -63.5t74 -102t50 -146l-334 -84q-10 93 -45.5 133.5t-102.5 40.5q-202 0 -211 -424q118 90 293 90q85 0 156.5 -24t129 -73.5t90 -133t32.5 -193.5 q0 -106 -28 -192t-77 -145t-117 -99t-146 -58t-167 -18q-125 0 -219 37t-153.5 101t-96 159.5t-51 201t-14.5 237.5zM465 586q0 -76 6.5 -132.5t23 -104t48 -72.5t78.5 -25q137 0 137 209q0 97 -30.5 140.5t-106.5 43.5q-79 0 -156 -59z" />
<glyph unicode="7" horiz-adv-x="1110" d="M57 1169v314h998v-281l-543 -1204h-403l548 1171h-600z" />
<glyph unicode="8" horiz-adv-x="1200" d="M27 369q0 143 72 231.5t212 140.5q-225 108 -225 353q0 131 72.5 226.5t193 142t273.5 46.5q242 0 370.5 -92t128.5 -256q0 -109 -54 -191t-175 -157q69 -34 114.5 -65.5t85 -76.5t58 -105t18.5 -138q0 -91 -40.5 -172.5t-114.5 -144t-188.5 -99.5t-252.5 -37 q-267 0 -407.5 108.5t-140.5 285.5zM395 410q0 -79 49 -122.5t140 -43.5q79 0 128.5 42t49.5 113q0 42 -17 74t-55 58t-75 43t-101 42q-62 -46 -90.5 -94t-28.5 -112zM485 1139q0 -64 42 -111.5t145 -97.5q43 30 69.5 84t26.5 106q0 72 -39 104.5t-100 32.5 q-69 0 -106.5 -34t-37.5 -84z" />
<glyph unicode="9" horiz-adv-x="1196" d="M45 342l336 96q13 -90 52 -139t118 -49q94 0 148.5 105.5t58.5 312.5q-122 -93 -295 -93q-85 0 -157.5 25t-130 76t-90 136.5t-32.5 197.5q0 103 29.5 187t80.5 141t121 96t149.5 57t168.5 18q118 0 208.5 -37t149.5 -101t96 -158.5t52.5 -201t15.5 -237.5 q0 -80 -6.5 -153.5t-23.5 -155.5t-44.5 -151t-73.5 -133t-105.5 -108.5t-145 -71t-188.5 -26.5q-75 0 -138 10t-123.5 36t-105 67t-78 105.5t-47.5 148.5zM442 1034q0 -97 33 -145.5t109 -48.5q73 0 153 61q-3 72 -7 114t-14 88.5t-26 70.5t-42.5 39.5t-65.5 15.5 q-140 0 -140 -195z" />
<glyph unicode=":" horiz-adv-x="626" d="M92 178q0 205 223 205q220 0 220 -205q0 -203 -220 -203q-116 0 -169.5 49.5t-53.5 153.5zM92 836q0 102 54 153t169 51q220 0 220 -204q0 -203 -220 -203q-116 0 -169.5 49.5t-53.5 153.5z" />
<glyph unicode=";" horiz-adv-x="622" d="M10 -262l137 561h394l-219 -588zM139 836q0 102 54 153t169 51q220 0 220 -204q0 -203 -220 -203q-116 0 -169.5 49.5t-53.5 153.5z" />
<glyph unicode="&#x3c;" d="M125 432v336l813 274v-299l-489 -143l489 -149v-291z" />
<glyph unicode="=" d="M180 229v283h805v-283h-805zM180 641v283h805v-283h-805z" />
<glyph unicode="&#x3e;" d="M207 160v293l489 147l-489 145v297l813 -274v-336z" />
<glyph unicode="?" d="M31 1071q24 217 173.5 327.5t399.5 110.5q82 0 155 -14t141.5 -47t117.5 -84t78.5 -130t29.5 -179q0 -377 -417 -484v-157h-383v379q61 5 112 14.5t105 30t91 49.5t61 75.5t24 106.5q0 150 -139 150q-83 0 -122 -50.5t-52 -152.5zM303 156q0 182 211 182q103 0 156 -46.5 t53 -135.5q0 -88 -52.5 -134.5t-156.5 -46.5q-211 0 -211 181z" />
<glyph unicode="@" horiz-adv-x="1765" d="M74 373q0 241 106.5 429.5t304 295t455.5 106.5q339 0 545.5 -190t206.5 -504q0 -266 -112.5 -400.5t-299.5 -134.5q-95 0 -164.5 32t-95.5 81q-82 -104 -215 -104q-135 0 -216 105t-81 278q0 127 39 227.5t116 159.5t181 59q109 0 168 -70l20 58h191v-547q0 -84 77 -84 q38 0 67 25.5t44 61.5t24 85.5t11 85.5t2 74q0 82 -17 153t-56 133t-98.5 106t-148.5 69.5t-202 25.5q-134 0 -240.5 -37.5t-173 -97t-110 -140.5t-61 -162t-17.5 -167q0 -153 42.5 -267t121.5 -183t185 -102.5t240 -33.5q164 0 338 64l56 -205q-162 -72 -420 -72 q-137 0 -258 30t-223 93t-175.5 154.5t-115 222t-41.5 287.5zM752 401q0 -231 125 -231q33 0 56.5 12t61.5 45v371q-13 17 -40 27t-54 10q-70 0 -109.5 -57.5t-39.5 -176.5z" />
<glyph unicode="A" horiz-adv-x="1478" d="M0 0l479 1483h482l528 -1483h-428l-109 319h-448l-96 -319h-408zM561 618h313l-151 504h-10z" />
<glyph unicode="B" horiz-adv-x="1314" d="M123 0v1483h631q127 0 217.5 -27t140.5 -78t72 -114t22 -144q0 -137 -75.5 -222.5t-194.5 -121.5v-6q338 -39 338 -358q0 -111 -42.5 -192t-120 -128t-177.5 -69.5t-225 -22.5h-586zM516 272h109q119 0 175 36t56 136q0 44 -11.5 75t-29 49t-46 28t-55.5 13t-65 3h-133 v-340zM516 883h59q46 0 80 3.5t67.5 14.5t55 29.5t34.5 50t13 74.5q0 42 -13 72t-30.5 45t-49.5 23t-55.5 9.5t-62.5 1.5h-98v-323z" />
<glyph unicode="C" horiz-adv-x="1427" d="M61 729q0 172 46 313.5t135 246t229.5 162.5t321.5 58q272 0 432 -132t172 -410l-357 -35q-7 150 -68 213t-186 63q-156 0 -236.5 -112t-80.5 -351q0 -247 76 -356.5t237 -109.5q124 0 183 63t82 176l348 -55q-12 -106 -56 -191t-106 -139.5t-141.5 -91t-160 -51.5 t-165.5 -15q-187 0 -323.5 51.5t-219.5 151t-122.5 236t-39.5 315.5z" />
<glyph unicode="D" horiz-adv-x="1478" d="M123 0v1483h559q374 0 554.5 -188t180.5 -531q0 -173 -46.5 -311.5t-139 -240.5t-241 -157t-343.5 -55h-524zM516 293h109q115 0 193 31.5t121 94.5t61 142.5t18 190.5q0 242 -84.5 339t-282.5 97h-135v-895z" />
<glyph unicode="E" horiz-adv-x="1204" d="M123 0v1483h985v-307h-592v-291h559v-301h-559v-275h637v-309h-1030z" />
<glyph unicode="F" horiz-adv-x="1140" d="M123 0v1483h977v-307h-584v-316h535v-301h-535v-559h-393z" />
<glyph unicode="G" horiz-adv-x="1515" d="M61 715q0 177 45.5 321.5t135 250.5t231 164t324.5 58q129 0 232.5 -28.5t185 -88.5t130 -162.5t58.5 -242.5l-365 -35q-4 41 -10 72t-22.5 68t-41.5 60.5t-69.5 39.5t-103.5 16q-320 0 -320 -458q0 -119 14 -202t48 -147.5t96 -95.5t155 -31q120 0 184 53.5t64 151.5v37 h-196v258h587v-774h-284l-39 172q-51 -98 -163.5 -147.5t-248.5 -49.5q-162 0 -284 55t-196 155.5t-110.5 233t-36.5 296.5z" />
<glyph unicode="H" horiz-adv-x="1507" d="M123 0v1483h393v-582h475v582h393v-1483h-393v575h-475v-575h-393z" />
<glyph unicode="I" horiz-adv-x="638" d="M123 0v1483h393v-1483h-393z" />
<glyph unicode="J" horiz-adv-x="1122" d="M16 420l379 55q5 -106 28 -154.5t89 -48.5q56 0 80 35.5t24 110.5v1065h394v-1047q0 -220 -131.5 -340.5t-370.5 -120.5q-82 0 -150.5 12t-132 43t-107.5 80t-71.5 128t-30.5 182z" />
<glyph unicode="K" horiz-adv-x="1413" d="M123 0v1483h391l2 -602l518 602h410l-516 -606l485 -877h-457l-311 580l-131 -146v-434h-391z" />
<glyph unicode="L" horiz-adv-x="1183" d="M123 0v1483h393v-1164h617v-319h-1010z" />
<glyph unicode="M" horiz-adv-x="1896" d="M123 0v1483h582l239 -991h14l236 991h580v-1483h-365v1102h-12l-291 -1102h-338l-274 1106h-13v-1106h-358z" />
<glyph unicode="N" horiz-adv-x="1525" d="M123 0v1483h457l471 -957v957h352v-1483h-445l-479 946v-946h-356z" />
<glyph unicode="O" horiz-adv-x="1558" d="M61 731q0 168 46.5 308.5t137 246t233.5 164.5t325 59q146 0 263.5 -38.5t197 -106t132.5 -163t77 -205t24 -236.5q0 -182 -44 -325t-132.5 -246.5t-228 -158.5t-324.5 -55q-186 0 -324 55.5t-220.5 158t-122.5 238t-40 304.5zM467 739q0 -248 77.5 -352t237.5 -104 q73 0 128 23t97.5 74.5t64.5 142t22 218.5q0 242 -74.5 351.5t-224.5 109.5q-163 0 -245.5 -110.5t-82.5 -352.5z" />
<glyph unicode="P" horiz-adv-x="1277" d="M123 0v1483h610q110 0 196.5 -26.5t141.5 -71t91 -106t50.5 -127.5t14.5 -140q0 -553 -590 -553h-123v-459h-391zM514 750h76q110 0 171.5 50.5t61.5 180.5q0 64 -17.5 107t-50 63.5t-66 28.5t-77.5 8h-98v-438z" />
<glyph unicode="Q" horiz-adv-x="1558" d="M61 731q0 168 46.5 308.5t137 246t233.5 164.5t325 59q146 0 263.5 -38.5t197 -106t132.5 -163t77 -205t24 -236.5q0 -171 -36 -298t-120 -233l160 -170l-215 -190l-174 186q-125 -80 -344 -80q-180 0 -317 55.5t-221.5 158t-126.5 238.5t-42 304zM467 739 q0 -248 80.5 -361.5t234.5 -113.5q73 0 125 17l-221 235l209 193l141 -162l47 -92q25 125 25 286q0 241 -80.5 351t-232.5 110q-163 0 -245.5 -110.5t-82.5 -352.5z" />
<glyph unicode="R" horiz-adv-x="1335" d="M123 0v1483h620q134 0 233 -34.5t156 -94.5t84 -134t27 -161q0 -293 -239 -418l321 -641h-424l-264 547h-123v-547h-391zM514 829h94q230 0 230 193q0 166 -199 166h-125v-359z" />
<glyph unicode="S" horiz-adv-x="1247" d="M8 455l350 49q7 -46 15.5 -78t26.5 -66t44 -55t68.5 -34t99.5 -13q205 0 205 152q0 44 -26 75.5t-70 51t-100.5 35t-119.5 31.5t-126 35.5t-119.5 52.5t-100.5 77.5t-70 115t-26 160.5q0 111 45 200.5t122.5 146.5t179.5 87.5t219 30.5q88 0 159.5 -9.5t145 -38 t124 -75.5t84 -126.5t38.5 -186.5l-357 -39q-5 104 -52 149.5t-153 45.5q-176 0 -176 -127q0 -48 32.5 -82.5t86 -54t121.5 -40.5t139 -39.5t139 -52.5t121.5 -78.5t86 -119.5t32.5 -172q0 -101 -32.5 -184t-88 -138.5t-132 -93.5t-161.5 -55t-180 -17q-576 0 -594 480z" />
<glyph unicode="T" horiz-adv-x="1269" d="M10 1165v318h1250v-318h-426v-1165h-394v1165h-430z" />
<glyph unicode="U" horiz-adv-x="1441" d="M102 563v920h394v-875q0 -71 4 -117t17.5 -90t38.5 -68.5t66.5 -39t102.5 -14.5q58 0 97.5 12.5t64 35.5t37.5 64.5t17.5 88.5t4.5 120v883h391l2 -930q0 -150 -45.5 -262.5t-129.5 -181t-197 -101.5t-254 -33q-319 0 -465 141t-146 447z" />
<glyph unicode="V" horiz-adv-x="1406" d="M-20 1483h444l291 -1106h16l297 1106h399l-452 -1483h-529z" />
<glyph unicode="W" horiz-adv-x="2068" d="M6 1483h410l182 -1082h10l228 1082h413l240 -1082h14l162 1082h395l-319 -1483h-502l-195 920h-10l-188 -920h-524z" />
<glyph unicode="X" horiz-adv-x="1366" d="M-20 0l473 745l-451 738h436l264 -457l265 457h403l-459 -740l475 -743h-454l-273 434l-258 -434h-421z" />
<glyph unicode="Y" horiz-adv-x="1290" d="M-51 1483h428l285 -590h12l272 590h395l-483 -934q0 -91 1 -274.5t1 -274.5h-395v547z" />
<glyph unicode="Z" horiz-adv-x="1216" d="M47 0v266l647 910h-633v307h1084v-275l-629 -901h655v-307h-1124z" />
<glyph unicode="[" horiz-adv-x="729" d="M123 -293v1776h534v-217h-161v-1344h161v-215h-534z" />
<glyph unicode="\" horiz-adv-x="995" d="M51 1546h348l576 -1734h-350z" />
<glyph unicode="]" horiz-adv-x="729" d="M72 -78h161v1344h-161v217h534v-1776h-534v215z" />
<glyph unicode="^" horiz-adv-x="1536" d="M174 612l404 748h387l407 -748h-362l-242 437l-236 -437h-358z" />
<glyph unicode="_" horiz-adv-x="1024" d="M0 -104h1024v-267h-1024v267z" />
<glyph unicode="`" horiz-adv-x="1024" d="M193 1518h395l125 -332l-250 -15z" />
<glyph unicode="a" horiz-adv-x="1159" d="M41 262q0 175 120.5 258.5t368.5 104.5l111 6v28q0 43 -1 64.5t-7 48.5t-18 39.5t-34.5 21.5t-56.5 9q-58 0 -85.5 -30t-45.5 -105l-315 55q26 163 138 249.5t339 86.5q231 0 345 -92.5t114 -292.5v-420q0 -46 12 -64t51 -18q23 0 64 12l8 -203q-34 -16 -104 -30.5 t-123 -14.5q-210 0 -256 152q-106 -152 -304 -152q-77 0 -136 20t-93 49.5t-55.5 70t-29 75.5t-7.5 72zM426 322q0 -89 92 -89q63 0 125 43v160h-14q-113 -4 -158 -30.5t-45 -83.5z" />
<glyph unicode="b" horiz-adv-x="1226" d="M92 0v1546h383v-565q114 117 293 117q84 0 153.5 -29.5t126 -91t88 -167.5t31.5 -249q0 -303 -118 -444.5t-326 -141.5q-177 0 -281 127l-10 -2l-18 -100h-322zM475 319q67 -51 135 -51q76 0 115 65.5t39 213.5q0 55 -6 96.5t-21.5 80t-47.5 59t-79 20.5q-70 0 -135 -58 v-426z" />
<glyph unicode="c" horiz-adv-x="1122" d="M51 516q0 277 147 429.5t418 152.5q211 0 333 -105t141 -307l-336 -49q-8 99 -38 145.5t-102 46.5q-80 0 -120.5 -60t-40.5 -216q0 -160 37.5 -229.5t125.5 -69.5q77 0 116.5 45t51.5 141l308 -57q-28 -203 -162.5 -305.5t-345.5 -102.5q-132 0 -234.5 39.5t-167.5 112 t-98 171t-33 218.5z" />
<glyph unicode="d" horiz-adv-x="1226" d="M59 514q0 126 27 227t71 166.5t104 109.5t123 62.5t130 18.5q84 0 139 -21t99 -65v534h383v-1546h-318l-22 102l-9 2q-99 -129 -294 -129q-202 0 -317.5 131.5t-115.5 407.5zM463 528q0 -262 168 -262q69 0 121 47v451q-52 43 -113 43q-90 0 -133 -76.5t-43 -202.5z" />
<glyph unicode="e" horiz-adv-x="1122" d="M51 535q0 140 42 249.5t116 177t170 102t209 34.5q247 0 365 -133.5t118 -376.5q0 -94 -4 -117h-612q0 -121 37 -171t124 -50q127 0 150 131l303 -74q-29 -153 -149.5 -242.5t-325.5 -89.5q-119 0 -213 30.5t-155 82.5t-101 124.5t-57 152t-17 170.5zM459 670h217v20 q0 156 -105 156q-49 0 -81 -42q-31 -41 -31 -128v-6z" />
<glyph unicode="f" horiz-adv-x="796" d="M0 821v254h137v99q0 202 118.5 299.5t319.5 97.5q87 0 158 -14t105 -29l-15 -248q-79 27 -139 27q-82 0 -123 -34t-41 -136v-62h277v-254h-277v-821h-383v821h-137z" />
<glyph unicode="g" horiz-adv-x="1157" d="M23 -219q0 70 51.5 118t150.5 58v4q-170 56 -170 197q0 77 44.5 135t127.5 119q-151 93 -151 286q0 175 129 287.5t362 112.5q168 0 269 -49q15 36 29.5 62t39 55t59 44t78.5 15q32 0 72 -13v-233h-20q-65 0 -129 -16q96 -107 96 -250q0 -179 -132.5 -282t-355.5 -103 q-102 0 -192 20q-21 -24 -21 -47q0 -46 72 -49l328 -16q184 -11 277 -85t93 -233q0 -131 -72 -217t-196.5 -124t-300.5 -38q-284 0 -411 60t-127 182zM356 -147q0 -91 232 -91q180 0 180 78q0 34 -23 50t-88 20l-264 12q-37 -30 -37 -69zM432 715q0 -137 146 -137 q65 0 106 35.5t41 99.5q0 68 -37 102.5t-104 34.5q-70 0 -111 -33t-41 -102z" />
<glyph unicode="h" horiz-adv-x="1196" d="M88 0v1546h379v-573q125 125 307 125q173 0 255.5 -87.5t82.5 -273.5v-737h-383v670q0 71 -27.5 102t-80.5 31q-44 0 -84 -18t-66 -44v-741h-383z" />
<glyph unicode="i" horiz-adv-x="571" d="M70 1397q0 104 56 158.5t161 54.5t162 -54.5t57 -158.5t-57.5 -160.5t-161.5 -56.5t-160.5 56.5t-56.5 160.5zM96 0v1075h383v-1075h-383z" />
<glyph unicode="j" horiz-adv-x="569" d="M-233 -391l22 256q89 -43 176 -43q59 0 95 32.5t36 120.5v1100h383v-1130q0 -205 -117 -303.5t-313 -98.5q-96 0 -171.5 20t-110.5 46zM70 1397q0 104 56 158.5t161 54.5t162 -54.5t57 -158.5t-57.5 -160.5t-161.5 -56.5t-160.5 56.5t-56.5 160.5z" />
<glyph unicode="k" horiz-adv-x="1196" d="M92 0v1546h383v-801l293 330h422l-348 -385l375 -690h-424l-248 459l-70 -70v-389h-383z" />
<glyph unicode="l" horiz-adv-x="571" d="M96 0v1546h383v-1546h-383z" />
<glyph unicode="m" horiz-adv-x="1734" d="M88 0v1075h324l16 -96q136 119 301 119q203 0 279 -133q46 60 127.5 96.5t183.5 36.5q161 0 246.5 -88t85.5 -265v-745h-383v684q0 119 -94 119q-27 0 -60.5 -13.5t-52.5 -37.5v-752h-383v684q0 119 -90 119q-71 0 -117 -49v-754h-383z" />
<glyph unicode="n" horiz-adv-x="1196" d="M88 0v1075h340l18 -104q123 127 320 127q180 0 263 -87.5t83 -273.5v-737h-383v670q0 71 -27.5 102t-80.5 31q-44 0 -84 -18t-66 -44v-741h-383z" />
<glyph unicode="o" horiz-adv-x="1214" d="M51 532q0 266 142.5 416t427.5 150q144 0 250 -40t169 -114t93 -171.5t30 -219.5q0 -273 -140 -425.5t-431 -152.5q-541 0 -541 557zM453 541q0 -176 32.5 -242t122.5 -66q83 0 119.5 68t36.5 242q0 167 -33.5 229t-116.5 62q-87 0 -124 -62t-37 -231z" />
<glyph unicode="p" horiz-adv-x="1224" d="M92 -434v1509h324l22 -110q120 133 318 133q89 0 161 -29.5t129 -91t88 -167.5t31 -249q0 -157 -33 -273t-93 -183t-135.5 -98.5t-168.5 -31.5q-96 0 -153.5 22.5t-110.5 70.5v-502h-379zM471 322q18 -20 59 -37t76 -17q81 0 118.5 69t37.5 210q0 137 -37 197.5 t-113 60.5q-69 0 -141 -57v-426z" />
<glyph unicode="q" horiz-adv-x="1226" d="M59 518q0 125 27 225.5t71.5 165.5t105 108.5t123.5 62t130 18.5q182 0 272 -129l37 106h310v-1509h-381v510q-106 -101 -271 -101q-200 0 -312 132.5t-112 410.5zM463 537q0 -269 168 -269q66 0 123 45v451q-51 43 -121 43q-87 0 -128.5 -73t-41.5 -197z" />
<glyph unicode="r" horiz-adv-x="841" d="M88 0v1075h328l28 -178q113 201 328 201q13 0 59 -4v-355q-25 1 -49 1q-188 0 -311 -91v-649h-383z" />
<glyph unicode="s" horiz-adv-x="1044" d="M23 242l303 114q21 -63 61.5 -101t122.5 -38q64 0 95.5 20.5t31.5 53.5q0 22 -12 38t-35.5 26t-51 17t-64.5 15q-7 1 -10.5 2t-9 2t-10.5 2q-148 29 -211 57q-166 73 -175 258q-1 12 -1 25q0 119 66.5 203t171.5 123t237 39q356 0 453 -273l-295 -100q-48 131 -160 131 q-52 0 -81 -18.5t-29 -53.5q0 -24 14.5 -40.5t47 -27.5t62 -17t81.5 -13q46 -7 74.5 -12.5t73 -18t73 -27t61.5 -39.5t52 -56t32 -76t13 -99q0 -97 -40.5 -172t-111.5 -120.5t-160.5 -68t-193.5 -22.5q-210 0 -327 71.5t-148 195.5z" />
<glyph unicode="t" horiz-adv-x="882" d="M0 821v254h158v320l383 49v-369h278v-254h-278v-434q0 -67 25 -97t85 -30q88 0 172 47l49 -246q-50 -32 -145 -59t-201 -27q-184 0 -276 88t-92 281v477h-158z" />
<glyph unicode="u" horiz-adv-x="1179" d="M84 330v745h383v-669q0 -73 23 -103.5t77 -30.5q39 0 78 18.5t64 43.5v741h383v-1075h-328l-29 123q-49 -69 -130 -108.5t-187 -39.5q-334 0 -334 355z" />
<glyph unicode="v" horiz-adv-x="1136" d="M-20 1075h413l178 -721h11l180 721h395l-366 -1075h-449z" />
<glyph unicode="w" horiz-adv-x="1732" d="M-20 1075h380l160 -694h6l162 694h369l166 -690h8l147 690h375l-313 -1075h-426l-146 627h-6l-123 -627h-454z" />
<glyph unicode="x" horiz-adv-x="1136" d="M0 1075h414l176 -305l176 305h364l-342 -534l349 -541h-408l-178 289l-178 -289h-361l344 530z" />
<glyph unicode="y" horiz-adv-x="1128" d="M-23 1075h412l182 -698h9l176 698h395q-88 -254 -408 -1155q-37 -105 -73 -171.5t-86.5 -115t-116.5 -69.5t-158 -21q-65 0 -141.5 13.5t-110.5 33.5l25 265q95 -33 158 -33q34 0 56.5 8.5t40 31.5t27.5 44t27 65z" />
<glyph unicode="z" horiz-adv-x="962" d="M51 0v250l432 559h-430v266h840v-254l-416 -536h449v-285h-875z" />
<glyph unicode="{" horiz-adv-x="770" d="M41 500v213h49q64 0 90.5 34t26.5 99q0 84 -15.5 206.5t-15.5 174.5q0 146 85.5 214t254.5 68h182v-219h-22q-51 0 -70.5 -22.5t-19.5 -67.5q0 -62 20.5 -191.5t20.5 -189.5q0 -89 -43 -134.5t-142 -80.5q99 -35 142 -79.5t43 -131.5q0 -60 -19.5 -188.5t-19.5 -190.5 q0 -45 18.5 -67.5t69.5 -22.5h22v-221h-182q-169 0 -254.5 68.5t-85.5 214.5q0 52 15.5 174.5t15.5 206.5q0 65 -26.5 99t-90.5 34h-49z" />
<glyph unicode="|" horiz-adv-x="573" d="M113 -293v1839h348v-1839h-348z" />
<glyph unicode="}" horiz-adv-x="770" d="M72 -78h22q51 0 70.5 22.5t19.5 67.5q0 62 -20.5 191.5t-20.5 189.5q0 89 43 134.5t142 80.5q-99 35 -142 79.5t-43 131.5q0 60 19.5 188.5t19.5 190.5q0 45 -18.5 67.5t-69.5 22.5h-22v221h182q169 0 254.5 -68t85.5 -214q0 -52 -15.5 -174.5t-15.5 -206.5 q0 -65 26.5 -99t90.5 -34h49v-213h-49q-64 0 -90.5 -34t-26.5 -99q0 -84 15.5 -206.5t15.5 -174.5q0 -146 -85.5 -214.5t-254.5 -68.5h-182v219z" />
<glyph unicode="~" horiz-adv-x="1331" d="M168 618q-18 147 42 240.5t198 93.5q74 0 270.5 -43t236.5 -43q31 0 41.5 18.5t10.5 63.5l200 -10q12 -88 -3.5 -159.5t-69.5 -119t-142 -47.5q-82 0 -281.5 44t-232.5 44q-37 0 -49 -19t-2 -71z" />
<glyph unicode="&#xa1;" horiz-adv-x="686" d="M133 918q0 87 52.5 133.5t156.5 46.5q211 0 211 -180q0 -183 -211 -183q-103 0 -156 47t-53 136zM135 -410l41 1069h330l41 -1069h-412z" />
<glyph unicode="&#xa2;" horiz-adv-x="1126" d="M72 723q0 210 96 345t276 179v221h324v-217q136 -31 217 -124t98 -244l-340 -45q-11 91 -37.5 129.5t-89.5 38.5q-37 0 -63 -9.5t-47.5 -35.5t-32 -76.5t-10.5 -126.5q0 -148 37 -209.5t123 -61.5q68 0 102.5 38.5t46.5 127.5l313 -53q-23 -151 -110 -242t-230 -122v-236 h-323v236q-173 42 -261.5 170t-88.5 317z" />
<glyph unicode="&#xa3;" horiz-adv-x="1253" d="M25 0v254h112q135 119 135 254q0 62 -26 121h-187v264h117q-23 41 -34.5 64t-25.5 70t-14 91q0 176 142.5 283.5t392.5 107.5q222 0 347 -90t161 -299l-340 -59l-7.5 39t-9 37t-13.5 36.5t-20 29.5t-28.5 25t-38.5 14.5t-51 6.5q-145 0 -145 -141q0 -35 13 -75.5 t25.5 -65.5t38.5 -74h363v-264h-301q12 -47 12 -94q0 -154 -127 -281h158q65 0 109 13.5t70 43.5t39.5 66t22.5 92l312 -51q-14 -217 -134 -317.5t-376 -100.5h-692z" />
<glyph unicode="&#xa4;" d="M-59 176l182 182q-41 103 -41 213q0 114 43 201l-178 178l198 197l168 -168q103 59 238 59q140 0 235 -53l162 160l191 -193l-170 -170q39 -85 39 -202q0 -114 -50 -224l181 -178l-199 -196l-174 174q-97 -54 -227 -54q-125 0 -232 56q-135 -135 -174 -176zM373 571 q0 -92 43 -149t131 -57q83 0 126.5 57.5t43.5 148.5q0 96 -44 148.5t-130 52.5q-83 0 -126.5 -55t-43.5 -146z" />
<glyph unicode="&#xa5;" horiz-adv-x="1230" d="M10 1483h410l207 -543h10l201 543h383l-316 -690h166v-293h-258v-500h-383v500h-254v293h152z" />
<glyph unicode="&#xa6;" horiz-adv-x="573" d="M113 -293v795h348v-795h-348zM113 860v686h348v-686h-348z" />
<glyph unicode="&#xa7;" horiz-adv-x="1189" d="M76 469q0 96 43 165t137 130q-102 102 -102 274q0 125 66 220t176.5 144.5t248.5 49.5q91 0 165.5 -19t139.5 -61t106.5 -118.5t53.5 -182.5l-324 -35q-5 87 -40 128.5t-111 41.5q-59 0 -96 -28.5t-37 -85.5q0 -42 26.5 -75.5t70 -54.5t99 -42.5t113.5 -40.5t113.5 -48.5 t99 -65t70 -92.5t26.5 -128q0 -171 -180 -299q102 -96 102 -271q0 -125 -66 -220t-176.5 -144t-248.5 -49q-91 0 -165.5 19t-139.5 61t-106.5 118.5t-53.5 182.5l324 34q5 -87 40 -128.5t111 -41.5q59 0 96 29t37 86q0 42 -26.5 74.5t-70 51.5t-99 39.5t-113.5 37.5 t-113.5 46.5t-99 65.5t-70 96t-26.5 136zM412 561q0 -27 13.5 -50t31.5 -37.5t53.5 -30.5t62 -24.5t75.5 -24t77 -25.5q59 39 59 90q0 30 -17.5 52.5t-53 39.5t-71.5 29.5t-92 30.5t-95 34q-43 -27 -43 -84z" />
<glyph unicode="&#xa8;" horiz-adv-x="1024" d="M76 1366q0 80 54 128t144 48q88 0 142.5 -48.5t54.5 -127.5t-54.5 -127.5t-142.5 -48.5q-90 0 -144 48t-54 128zM551 1366q0 79 55.5 127.5t143.5 48.5q90 0 143 -48t53 -128t-53 -128t-143 -48q-88 0 -143.5 48.5t-55.5 127.5z" />
<glyph unicode="&#xa9;" horiz-adv-x="1681" d="M102 682q0 169 58.5 309t159 232.5t235.5 143t289 50.5q342 0 538.5 -191t196.5 -513q0 -218 -93.5 -386.5t-261.5 -260t-384 -91.5q-178 0 -319.5 54t-232 149.5t-138.5 223.5t-48 280zM309 684q0 -247 140 -384.5t395 -137.5q252 0 392 142t140 396q0 253 -146.5 392 t-385.5 139q-234 0 -384.5 -146.5t-150.5 -400.5zM487 696q0 178 98.5 288t274.5 110q127 0 218 -72t98 -207l-168 -16q-10 76 -48.5 110.5t-107.5 34.5q-178 0 -178 -252q0 -246 178 -246q141 0 168 148l164 -29q-10 -76 -46 -131t-86.5 -83.5t-100 -41t-99.5 -12.5 q-188 0 -276.5 108t-88.5 291z" />
<glyph unicode="&#xaa;" horiz-adv-x="835" d="M29 752q0 114 80.5 167.5t259.5 71.5l75 6v9q0 28 -1.5 42.5t-7.5 31.5t-21 24.5t-39 7.5q-36 0 -53.5 -18t-28.5 -66l-240 41q40 236 344 236q165 0 248.5 -62t83.5 -194v-265q0 -31 8.5 -42t36.5 -11q22 0 43 8l6 -147q-27 -10 -79 -20.5t-91 -10.5q-154 0 -190 101 q-74 -101 -207 -101q-66 0 -113.5 19t-70.5 49.5t-33 60.5t-10 62zM322 795q0 -47 55 -47q39 0 69 18v92q-74 -4 -99 -19.5t-25 -43.5z" />
<glyph unicode="&#xab;" horiz-adv-x="985" d="M51 524l182 312h299l-184 -304l172 -321h-295zM463 524l182 312h299l-184 -304l172 -321h-295z" />
<glyph unicode="&#xac;" d="M164 522v283h805v-477h-264v194h-541z" />
<glyph unicode="&#xad;" horiz-adv-x="636" d="M41 440v308h555v-308h-555z" />
<glyph unicode="&#xae;" horiz-adv-x="966" d="M82 950q0 184 115.5 294t287.5 110q185 0 292.5 -104.5t107.5 -282.5t-112.5 -290t-291.5 -112q-189 0 -294 108t-105 277zM195 954q0 -133 77 -207.5t213 -74.5q134 0 211.5 77t77.5 212q0 137 -80.5 212.5t-208.5 75.5q-125 0 -207.5 -80t-82.5 -215zM346 780v389h152 q81 0 117 -32t36 -82q0 -78 -71 -103l104 -172h-121l-84 144h-26v-144h-107zM453 997h28q62 0 62 47q0 48 -56 48h-34v-95z" />
<glyph unicode="&#xaf;" horiz-adv-x="1024" d="M180 1206v242h662v-242h-662z" />
<glyph unicode="&#xb0;" horiz-adv-x="684" d="M94 1282q0 114 72.5 183t177.5 69t176.5 -68t71.5 -178t-69.5 -179t-178.5 -69q-110 0 -180 68t-70 174zM250 1284q0 -39 26.5 -66.5t67.5 -27.5q38 0 65 28.5t27 69.5t-27.5 68.5t-64.5 27.5q-36 0 -65 -29t-29 -71z" />
<glyph unicode="&#xb1;" d="M180 0v283h805v-283h-805zM180 522v283h256v274h291v-274h258v-283h-258v-217h-291v217h-256z" />
<glyph unicode="&#xb2;" horiz-adv-x="851" d="M43 1366q6 75 39.5 133.5t86.5 94t118 53.5t137 18q183 0 267.5 -69t84.5 -183q0 -55 -15.5 -100.5t-55 -94t-92.5 -95t-142 -115.5l-18 -15v-10h338v-268h-721v270l192 178q106 99 144 146t38 80q0 43 -41 43q-26 0 -47 -24t-28 -77z" />
<glyph unicode="&#xb3;" horiz-adv-x="860" d="M25 971l282 51q7 -88 84 -88q70 0 70 70q0 40 -17.5 57.5t-68.5 17.5h-113v209h66q64 0 92.5 24.5t28.5 73.5q0 54 -52 54q-60 0 -75 -84l-275 49q13 74 50.5 127t91.5 81.5t112.5 41t126.5 12.5q165 0 254.5 -57t89.5 -170q0 -84 -47 -136t-129 -87v-7q201 -47 201 -215 q0 -96 -53.5 -163.5t-142 -99.5t-204.5 -32q-51 0 -96.5 7t-93.5 25.5t-84.5 48t-63 78.5t-34.5 112z" />
<glyph unicode="&#xb4;" horiz-adv-x="1024" d="M317 1186l125 332h396l-271 -347z" />
<glyph unicode="&#xb5;" horiz-adv-x="1288" d="M143 -360v1435h383v-674q0 -72 16 -101.5t62 -29.5q78 0 139 45v760h383v-1075h-307l-16 96h-15q-88 -62 -165 -90q-59 -19 -109 -26l27 -340h-398z" />
<glyph unicode="&#xb6;" horiz-adv-x="1277" d="M92 971q0 137 44.5 238t125.5 160t183.5 86.5t230.5 27.5h479v-1755h-248v1536h-114v-1536h-248v766q-453 23 -453 477z" />
<glyph unicode="&#xb7;" horiz-adv-x="542" d="M72 639q0 178 200 178q199 0 199 -178t-199 -178q-200 0 -200 178z" />
<glyph unicode="&#xb8;" horiz-adv-x="1024" d="M279 -504l18 166q55 -12 102 -12q105 0 105 71q0 43 -30 57.5t-93 16.5l35 266l164 -16l-19 -139q182 -32 182 -191q0 -119 -81 -181t-213 -62q-81 0 -170 24z" />
<glyph unicode="&#xb9;" horiz-adv-x="671" d="M47 1538q198 14 305 107h248v-934h-334v600q-32 -12 -102.5 -22.5t-106.5 -10.5z" />
<glyph unicode="&#xba;" horiz-adv-x="872" d="M39 930q0 178 100 276.5t305 98.5q204 0 297 -96.5t93 -264.5q0 -183 -100.5 -283t-309.5 -100q-385 0 -385 369zM346 936q0 -101 18.5 -139.5t71.5 -38.5q50 0 71 38.5t21 139.5q0 95 -19 133.5t-69 38.5q-52 0 -73 -38t-21 -134z" />
<glyph unicode="&#xbb;" horiz-adv-x="985" d="M41 836h299l182 -312l-174 -313h-295l174 317zM453 836h299l182 -312l-174 -313h-295l174 317z" />
<glyph unicode="&#xbc;" horiz-adv-x="2211" d="M47 1399q200 14 305 106h248v-934h-334v600q-32 -11 -102.5 -21.5t-106.5 -10.5zM473 -25l725 1508h348l-723 -1508h-350zM1239 174v221l346 539h397v-512h105v-248h-102v-174h-322v174h-424zM1509 422h154v242z" />
<glyph unicode="&#xbd;" horiz-adv-x="2211" d="M47 1399q200 14 305 106h248v-934h-334v600q-32 -11 -102.5 -21.5t-106.5 -10.5zM473 -25l725 1508h348l-723 -1508h-350zM1305 651q6 75 39.5 133.5t86.5 94t118 53.5t137 18q183 0 267.5 -69t84.5 -183q0 -55 -15.5 -100.5t-55 -94t-92.5 -95t-142 -115.5l-19 -14v-11 h338v-268h-721v270l193 179q107 99 144.5 146t37.5 79q0 43 -41 43q-26 0 -47.5 -24t-28.5 -77z" />
<glyph unicode="&#xbe;" horiz-adv-x="2211" d="M68 831l282 52q7 -88 84 -88q70 0 70 69q0 40 -17.5 58t-68.5 18h-113v209h66q64 0 92.5 24.5t28.5 73.5q0 53 -52 53q-60 0 -75 -83l-275 49q13 74 50.5 127t91.5 81.5t112.5 41t126.5 12.5q165 0 254.5 -57.5t89.5 -170.5q0 -84 -47 -136t-129 -87v-6q201 -47 201 -215 q0 -96 -53.5 -163.5t-142 -99.5t-204.5 -32q-51 0 -96.5 7t-93.5 25.5t-84.5 47.5t-63 78t-34.5 112zM567 -25l725 1508h348l-722 -1508h-351zM1286 174v221l346 539h398v-512h104v-248h-102v-174h-322v174h-424zM1556 422h154v242z" />
<glyph unicode="&#xbf;" d="M45 18q0 377 418 484v157h383v-378q-393 -34 -393 -277q0 -149 139 -149q83 0 122 50t52 152l375 -55q-24 -216 -175.5 -327t-398.5 -111q-82 0 -155 14t-141.5 47t-117.5 84t-78.5 130t-29.5 179zM449 918q0 180 208 180q211 0 211 -180q0 -183 -211 -183 q-103 0 -155.5 47t-52.5 136z" />
<glyph unicode="&#xc0;" horiz-adv-x="1478" d="M0 0l479 1483h482l528 -1483h-428l-109 319h-448l-96 -319h-408zM358 1880h396l176 -293l-264 -14zM561 618h313l-151 504h-10z" />
<glyph unicode="&#xc1;" horiz-adv-x="1478" d="M0 0l479 1483h482l528 -1483h-428l-109 319h-448l-96 -319h-408zM516 1587l176 293h395l-307 -307zM561 618h313l-151 504h-10z" />
<glyph unicode="&#xc2;" horiz-adv-x="1478" d="M0 0l479 1483h482l528 -1483h-428l-109 319h-448l-96 -319h-408zM332 1585l207 305h362l193 -305l-242 -10l-131 141l-141 -143zM561 618h313l-151 504h-10z" />
<glyph unicode="&#xc3;" horiz-adv-x="1478" d="M0 0l479 1483h482l528 -1483h-428l-109 319h-448l-96 -319h-408zM342 1616q-18 142 40.5 229.5t178.5 87.5q58 0 114 -21.5t103 -43t84 -21.5q31 0 41 18.5t10 63.5l181 -10q19 -137 -28.5 -223t-166.5 -86q-63 0 -122 22t-105.5 44t-79.5 22q-37 0 -49 -19t-2 -71z M561 618h313l-151 504h-10z" />
<glyph unicode="&#xc4;" horiz-adv-x="1478" d="M0 0l479 1483h482l528 -1483h-428l-109 319h-448l-96 -319h-408zM279 1765q0 80 54 128.5t144 48.5q88 0 142.5 -49t54.5 -128t-54.5 -127.5t-142.5 -48.5q-90 0 -144 48t-54 128zM561 618h313l-151 504h-10zM766 1765q0 79 55.5 128t143.5 49q90 0 143 -48.5t53 -128.5 t-53 -128t-143 -48q-88 0 -143.5 48.5t-55.5 127.5z" />
<glyph unicode="&#xc5;" horiz-adv-x="1478" d="M0 0l479 1481q-37 55 -37 137q0 125 80 193.5t199 68.5q121 0 198.5 -67t77.5 -189q0 -85 -36 -141l528 -1483h-428l-109 319h-448l-96 -319h-408zM561 618h313l-151 504h-10zM610 1632q0 -55 29.5 -82.5t79.5 -27.5q49 0 77.5 27.5t28.5 82.5q0 103 -104 103 q-50 0 -80.5 -25.5t-30.5 -77.5z" />
<glyph unicode="&#xc6;" horiz-adv-x="2056" d="M4 0l674 1483h1282v-307h-592v-312h559v-301h-559v-254h637v-309h-1030v559h-328l-239 -559h-404zM752 852h223v324h-86z" />
<glyph unicode="&#xc7;" horiz-adv-x="1427" d="M61 729q0 172 46 313.5t135 246t229.5 162.5t321.5 58q272 0 432 -132t172 -410l-357 -35q-7 150 -68 213t-186 63q-156 0 -236.5 -112t-80.5 -351q0 -247 76 -356.5t237 -109.5q124 0 183 63t82 176l348 -55q-14 -120 -67 -212t-133 -147t-168.5 -85t-188.5 -39l-9 -74 q183 -32 183 -191q0 -119 -81.5 -181t-213.5 -62q-81 0 -170 24l18 166q56 -12 103 -12q51 0 77.5 16t26.5 55q0 43 -30 57.5t-93 16.5l23 185q-611 46 -611 749z" />
<glyph unicode="&#xc8;" horiz-adv-x="1204" d="M123 0v1483h985v-307h-592v-291h559v-301h-559v-275h637v-309h-1030zM258 1880h395l176 -293l-264 -14z" />
<glyph unicode="&#xc9;" horiz-adv-x="1204" d="M123 0v1483h985v-307h-592v-291h559v-301h-559v-275h637v-309h-1030zM416 1587l176 293h395l-307 -307z" />
<glyph unicode="&#xca;" horiz-adv-x="1204" d="M123 0v1483h985v-307h-592v-291h559v-301h-559v-275h637v-309h-1030zM231 1585l207 305h363l192 -305l-241 -10l-131 141l-142 -143z" />
<glyph unicode="&#xcb;" horiz-adv-x="1204" d="M123 0v1483h985v-307h-592v-291h559v-301h-559v-275h637v-309h-1030zM178 1765q0 80 54.5 128.5t144.5 48.5q88 0 142 -49t54 -128t-54 -127.5t-142 -48.5q-91 0 -145 48t-54 128zM666 1765q0 79 55 128t143 49q90 0 143.5 -48.5t53.5 -128.5t-53.5 -128t-143.5 -48 q-88 0 -143 48.5t-55 127.5z" />
<glyph unicode="&#xcc;" horiz-adv-x="638" d="M-68 1880h396l176 -293l-264 -14zM123 0v1483h393v-1483h-393z" />
<glyph unicode="&#xcd;" horiz-adv-x="638" d="M123 0v1483h393v-1483h-393zM143 1587l176 293h396l-307 -307z" />
<glyph unicode="&#xce;" horiz-adv-x="638" d="M-68 1585l207 305h363l192 -305l-241 -10l-131 141l-142 -143zM123 0v1483h393v-1483h-393z" />
<glyph unicode="&#xcf;" horiz-adv-x="638" d="M-121 1765q0 80 54.5 128.5t144.5 48.5q88 0 142 -49t54 -128t-54 -127.5t-142 -48.5q-91 0 -145 48t-54 128zM123 0v1483h393v-1483h-393zM367 1765q0 79 55 128t143 49q90 0 143.5 -48.5t53.5 -128.5t-53.5 -128t-143.5 -48q-88 0 -143 48.5t-55 127.5z" />
<glyph unicode="&#xd0;" horiz-adv-x="1478" d="M-10 596v291h133v596h559q374 0 554.5 -188t180.5 -531q0 -173 -46.5 -311.5t-139 -240.5t-241 -157t-343.5 -55h-524v596h-133zM516 293h109q115 0 193 31.5t121 94.5t61 142.5t18 190.5q0 242 -84.5 339t-282.5 97h-135v-301h262v-291h-262v-303z" />
<glyph unicode="&#xd1;" horiz-adv-x="1525" d="M123 0v1483h457l471 -957v957h352v-1483h-445l-479 946v-946h-356zM385 1616q-18 142 40.5 229.5t178.5 87.5q58 0 114 -21.5t103 -43t84 -21.5q31 0 41 18.5t10 63.5l181 -10q19 -137 -28.5 -223t-166.5 -86q-63 0 -122 22t-105.5 44t-79.5 22q-37 0 -49 -19t-2 -71z " />
<glyph unicode="&#xd2;" horiz-adv-x="1558" d="M61 731q0 168 46.5 308.5t137 246t233.5 164.5t325 59q146 0 263.5 -38.5t197 -106t132.5 -163t77 -205t24 -236.5q0 -182 -44 -325t-132.5 -246.5t-228 -158.5t-324.5 -55q-186 0 -324 55.5t-220.5 158t-122.5 238t-40 304.5zM432 1880h395l177 -293l-265 -14zM467 739 q0 -248 77.5 -352t237.5 -104q73 0 128 23t97.5 74.5t64.5 142t22 218.5q0 242 -74.5 351.5t-224.5 109.5q-163 0 -245.5 -110.5t-82.5 -352.5z" />
<glyph unicode="&#xd3;" horiz-adv-x="1558" d="M61 731q0 168 46.5 308.5t137 246t233.5 164.5t325 59q146 0 263.5 -38.5t197 -106t132.5 -163t77 -205t24 -236.5q0 -182 -44 -325t-132.5 -246.5t-228 -158.5t-324.5 -55q-186 0 -324 55.5t-220.5 158t-122.5 238t-40 304.5zM467 739q0 -248 77.5 -352t237.5 -104 q73 0 128 23t97.5 74.5t64.5 142t22 218.5q0 242 -74.5 351.5t-224.5 109.5q-163 0 -245.5 -110.5t-82.5 -352.5zM590 1587l176 293h395l-307 -307z" />
<glyph unicode="&#xd4;" horiz-adv-x="1558" d="M61 731q0 168 46.5 308.5t137 246t233.5 164.5t325 59q146 0 263.5 -38.5t197 -106t132.5 -163t77 -205t24 -236.5q0 -182 -44 -325t-132.5 -246.5t-228 -158.5t-324.5 -55q-186 0 -324 55.5t-220.5 158t-122.5 238t-40 304.5zM406 1585l206 305h363l192 -305l-241 -10 l-131 141l-142 -143zM467 739q0 -248 77.5 -352t237.5 -104q73 0 128 23t97.5 74.5t64.5 142t22 218.5q0 242 -74.5 351.5t-224.5 109.5q-163 0 -245.5 -110.5t-82.5 -352.5z" />
<glyph unicode="&#xd5;" horiz-adv-x="1558" d="M61 731q0 168 46.5 308.5t137 246t233.5 164.5t325 59q146 0 263.5 -38.5t197 -106t132.5 -163t77 -205t24 -236.5q0 -182 -44 -325t-132.5 -246.5t-228 -158.5t-324.5 -55q-186 0 -324 55.5t-220.5 158t-122.5 238t-40 304.5zM416 1616q-18 142 40.5 229.5t178.5 87.5 q58 0 114 -21.5t103 -43t84 -21.5q31 0 41 18.5t10 63.5l180 -10q19 -137 -28 -223t-166 -86q-63 0 -122 22t-105.5 44t-79.5 22q-37 0 -49.5 -19t-2.5 -71zM467 739q0 -248 77.5 -352t237.5 -104q73 0 128 23t97.5 74.5t64.5 142t22 218.5q0 242 -74.5 351.5t-224.5 109.5 q-163 0 -245.5 -110.5t-82.5 -352.5z" />
<glyph unicode="&#xd6;" horiz-adv-x="1558" d="M61 731q0 168 46.5 308.5t137 246t233.5 164.5t325 59q146 0 263.5 -38.5t197 -106t132.5 -163t77 -205t24 -236.5q0 -182 -44 -325t-132.5 -246.5t-228 -158.5t-324.5 -55q-186 0 -324 55.5t-220.5 158t-122.5 238t-40 304.5zM352 1765q0 80 54.5 128.5t144.5 48.5 q88 0 142.5 -49t54.5 -128t-54.5 -127.5t-142.5 -48.5q-91 0 -145 48t-54 128zM467 739q0 -248 77.5 -352t237.5 -104q73 0 128 23t97.5 74.5t64.5 142t22 218.5q0 242 -74.5 351.5t-224.5 109.5q-163 0 -245.5 -110.5t-82.5 -352.5zM840 1765q0 79 55 128t143 49 q90 0 143.5 -48.5t53.5 -128.5t-53.5 -128t-143.5 -48q-88 0 -143 48.5t-55 127.5z" />
<glyph unicode="&#xd7;" d="M184 465l195 194l-195 195l205 205l195 -195l194 195l205 -205l-195 -195l195 -194l-205 -205l-194 195l-195 -195z" />
<glyph unicode="&#xd8;" horiz-adv-x="1558" d="M61 731q0 168 46.5 308.5t137 246t233.5 164.5t325 59q53 0 102 -6l53 125h381l-104 -244q262 -193 262 -624q0 -182 -44 -325t-132.5 -246.5t-228 -158.5t-324.5 -55q-68 0 -129 9l-55 -146h-381l110 266q-252 185 -252 627zM467 739q0 -248 77.5 -352t237.5 -104 q73 0 128 23t97.5 74.5t64.5 142t22 218.5q0 242 -74.5 351.5t-224.5 109.5q-163 0 -245.5 -110.5t-82.5 -352.5z" />
<glyph unicode="&#xd9;" horiz-adv-x="1441" d="M102 563v920h394v-875q0 -71 4 -117t17.5 -90t38.5 -68.5t66.5 -39t102.5 -14.5q58 0 97.5 12.5t64 35.5t37.5 64.5t17.5 88.5t4.5 120v883h391l2 -930q0 -150 -45.5 -262.5t-129.5 -181t-197 -101.5t-254 -33q-319 0 -465 141t-146 447zM360 1880h396l176 -293l-264 -14 z" />
<glyph unicode="&#xda;" horiz-adv-x="1441" d="M102 563v920h394v-875q0 -71 4 -117t17.5 -90t38.5 -68.5t66.5 -39t102.5 -14.5q58 0 97.5 12.5t64 35.5t37.5 64.5t17.5 88.5t4.5 120v883h391l2 -930q0 -150 -45.5 -262.5t-129.5 -181t-197 -101.5t-254 -33q-319 0 -465 141t-146 447zM569 1587l176 293h396l-307 -307 z" />
<glyph unicode="&#xdb;" horiz-adv-x="1441" d="M102 563v920h394v-875q0 -71 4 -117t17.5 -90t38.5 -68.5t66.5 -39t102.5 -14.5q58 0 97.5 12.5t64 35.5t37.5 64.5t17.5 88.5t4.5 120v883h391l2 -930q0 -150 -45.5 -262.5t-129.5 -181t-197 -101.5t-254 -33q-319 0 -465 141t-146 447zM334 1585l207 305h362l193 -305 l-242 -10l-131 141l-141 -143z" />
<glyph unicode="&#xdc;" horiz-adv-x="1441" d="M102 563v920h394v-875q0 -71 4 -117t17.5 -90t38.5 -68.5t66.5 -39t102.5 -14.5q58 0 97.5 12.5t64 35.5t37.5 64.5t17.5 88.5t4.5 120v883h391l2 -930q0 -150 -45.5 -262.5t-129.5 -181t-197 -101.5t-254 -33q-319 0 -465 141t-146 447zM281 1765q0 80 54 128.5 t144 48.5q88 0 142.5 -49t54.5 -128t-54.5 -127.5t-142.5 -48.5q-90 0 -144 48t-54 128zM768 1765q0 79 55.5 128t143.5 49q90 0 143 -48.5t53 -128.5t-53 -128t-143 -48q-88 0 -143.5 48.5t-55.5 127.5z" />
<glyph unicode="&#xdd;" horiz-adv-x="1290" d="M-51 1483h428l285 -590h12l272 590h395l-483 -934q0 -91 1 -274.5t1 -274.5h-395v547zM465 1587l176 293h395l-307 -307z" />
<glyph unicode="&#xde;" horiz-adv-x="1277" d="M123 0v1483h401v-236h209q110 0 196.5 -26.5t141.5 -71t91 -106t50.5 -127.5t14.5 -140q0 -253 -148 -392.5t-442 -139.5h-123v-244h-391zM514 535h76q233 0 233 210q0 64 -17.5 107t-50 63.5t-66 28.5t-77.5 8h-98v-417z" />
<glyph unicode="&#xdf;" horiz-adv-x="1323" d="M88 0v1018q0 555 574 555q248 0 390 -106.5t142 -299.5q0 -76 -22.5 -139.5t-58.5 -104t-71 -65t-69 -35.5v-8q49 -11 89 -26.5t83 -45.5t71.5 -71.5t47 -106.5t18.5 -147q0 -68 -15 -131t-48 -120.5t-81.5 -99.5t-121 -67t-160.5 -25q-175 0 -260 50v245q56 -20 121 -20 q78 0 129 47.5t51 153.5q0 204 -217 204h-68v254h37q88 0 125 51.5t37 151.5t-44 148.5t-120 48.5q-40 0 -70 -10.5t-55 -37t-38 -77.5t-13 -125v-1059h-383z" />
<glyph unicode="&#xe0;" horiz-adv-x="1159" d="M41 262q0 175 120.5 258.5t368.5 104.5l111 6v28q0 43 -1 64.5t-7 48.5t-18 39.5t-34.5 21.5t-56.5 9q-58 0 -85.5 -30t-45.5 -105l-315 55q26 163 138 249.5t339 86.5q231 0 345 -92.5t114 -292.5v-420q0 -46 12 -64t51 -18q23 0 64 12l8 -203q-34 -16 -104 -30.5 t-123 -14.5q-210 0 -256 152q-106 -152 -304 -152q-77 0 -136 20t-93 49.5t-55.5 70t-29 75.5t-7.5 72zM227 1518h396l125 -332l-250 -15zM426 322q0 -89 92 -89q63 0 125 43v160h-14q-113 -4 -158 -30.5t-45 -83.5z" />
<glyph unicode="&#xe1;" horiz-adv-x="1159" d="M41 262q0 175 120.5 258.5t368.5 104.5l111 6v28q0 43 -1 64.5t-7 48.5t-18 39.5t-34.5 21.5t-56.5 9q-58 0 -85.5 -30t-45.5 -105l-315 55q26 163 138 249.5t339 86.5q231 0 345 -92.5t114 -292.5v-420q0 -46 12 -64t51 -18q23 0 64 12l8 -203q-34 -16 -104 -30.5 t-123 -14.5q-210 0 -256 152q-106 -152 -304 -152q-77 0 -136 20t-93 49.5t-55.5 70t-29 75.5t-7.5 72zM360 1186l125 332h396l-271 -347zM426 322q0 -89 92 -89q63 0 125 43v160h-14q-113 -4 -158 -30.5t-45 -83.5z" />
<glyph unicode="&#xe2;" horiz-adv-x="1159" d="M41 262q0 175 120.5 258.5t368.5 104.5l111 6v28q0 43 -1 64.5t-7 48.5t-18 39.5t-34.5 21.5t-56.5 9q-58 0 -85.5 -30t-45.5 -105l-315 55q26 163 138 249.5t339 86.5q231 0 345 -92.5t114 -292.5v-420q0 -46 12 -64t51 -18q23 0 64 12l8 -203q-34 -16 -104 -30.5 t-123 -14.5q-210 0 -256 152q-106 -152 -304 -152q-77 0 -136 20t-93 49.5t-55.5 70t-29 75.5t-7.5 72zM170 1188l207 336h362l193 -336l-242 -10l-131 172l-141 -174zM426 322q0 -89 92 -89q63 0 125 43v160h-14q-113 -4 -158 -30.5t-45 -83.5z" />
<glyph unicode="&#xe3;" horiz-adv-x="1159" d="M41 262q0 175 120.5 258.5t368.5 104.5l111 6v28q0 43 -1 64.5t-7 48.5t-18 39.5t-34.5 21.5t-56.5 9q-58 0 -85.5 -30t-45.5 -105l-315 55q26 163 138 249.5t339 86.5q231 0 345 -92.5t114 -292.5v-420q0 -46 12 -64t51 -18q23 0 64 12l8 -203q-34 -16 -104 -30.5 t-123 -14.5q-210 0 -256 152q-106 -152 -304 -152q-77 0 -136 20t-93 49.5t-55.5 70t-29 75.5t-7.5 72zM182 1198q-18 142 40.5 230t178.5 88q58 0 114 -21.5t103 -43t84 -21.5q31 0 41.5 18t10.5 63l180 -10q19 -137 -28.5 -223t-166.5 -86q-63 0 -122 22t-105.5 44 t-79.5 22q-37 0 -49 -19t-2 -71zM426 322q0 -89 92 -89q63 0 125 43v160h-14q-113 -4 -158 -30.5t-45 -83.5z" />
<glyph unicode="&#xe4;" horiz-adv-x="1159" d="M41 262q0 175 120.5 258.5t368.5 104.5l111 6v28q0 43 -1 64.5t-7 48.5t-18 39.5t-34.5 21.5t-56.5 9q-58 0 -85.5 -30t-45.5 -105l-315 55q26 163 138 249.5t339 86.5q231 0 345 -92.5t114 -292.5v-420q0 -46 12 -64t51 -18q23 0 64 12l8 -203q-34 -16 -104 -30.5 t-123 -14.5q-210 0 -256 152q-106 -152 -304 -152q-77 0 -136 20t-93 49.5t-55.5 70t-29 75.5t-7.5 72zM119 1366q0 80 54 128t144 48q88 0 142.5 -48.5t54.5 -127.5t-54.5 -127.5t-142.5 -48.5q-90 0 -144 48t-54 128zM426 322q0 -89 92 -89q63 0 125 43v160h-14 q-113 -4 -158 -30.5t-45 -83.5zM594 1366q0 79 55.5 127.5t143.5 48.5q90 0 143 -48t53 -128t-53 -128t-143 -48q-88 0 -143.5 48.5t-55.5 127.5z" />
<glyph unicode="&#xe5;" horiz-adv-x="1159" d="M41 262q0 175 120.5 258.5t368.5 104.5l111 6v28q0 43 -1 64.5t-7 48.5t-18 39.5t-34.5 21.5t-56.5 9q-58 0 -85.5 -30t-45.5 -105l-315 55q26 163 138 249.5t339 86.5q231 0 345 -92.5t114 -292.5v-420q0 -46 12 -64t51 -18q23 0 64 12l8 -203q-34 -16 -104 -30.5 t-123 -14.5q-210 0 -256 152q-106 -152 -304 -152q-77 0 -136 20t-93 49.5t-55.5 70t-29 75.5t-7.5 72zM315 1376q0 108 69 168t171 60q103 0 170.5 -58.5t67.5 -163.5q0 -106 -65 -162.5t-173 -56.5t-174 56t-66 157zM426 322q0 -89 92 -89q63 0 125 43v160h-14 q-113 -4 -158 -30.5t-45 -83.5zM469 1382q0 -42 22.5 -63t61.5 -21q38 0 61 21t23 63q0 40 -22.5 61t-59.5 21q-38 0 -62 -21t-24 -61z" />
<glyph unicode="&#xe6;" horiz-adv-x="1691" d="M41 256q0 195 145 279.5t455 95.5v22q0 33 -0.5 49t-2.5 41t-6.5 36t-12.5 26t-20.5 21.5t-31 11t-43.5 4.5q-60 0 -90 -31.5t-41 -105.5l-315 55q47 338 461 338q114 0 186 -30t131 -97q131 127 348 127q215 0 325.5 -135.5t110.5 -374.5q0 -94 -4 -117h-612 q0 -121 37.5 -171t124.5 -50q126 0 149 131l303 -74q-29 -153 -149.5 -242.5t-325.5 -89.5q-272 0 -409 160q-132 -160 -381 -160q-77 0 -137 19t-96 48t-59 68t-31.5 74.5t-8.5 71.5zM426 315q0 -84 98 -84q40 0 80 16.5t66 41.5q-18 54 -29 145q-119 -4 -167 -32t-48 -87z M1028 670h217q7 176 -104 176q-49 0 -81.5 -42t-31.5 -134z" />
<glyph unicode="&#xe7;" horiz-adv-x="1122" d="M51 516q0 277 147 429.5t418 152.5q211 0 333 -105t141 -307l-336 -49q-8 99 -38 145.5t-102 46.5q-80 0 -120.5 -60t-40.5 -216q0 -160 37.5 -229.5t125.5 -69.5q77 0 116.5 45t51.5 141l308 -57q-56 -366 -437 -403l-8 -74q182 -32 182 -191q0 -119 -81 -181t-213 -62 q-81 0 -170 24l18 166q55 -12 102 -12q105 0 105 71q0 43 -30 57.5t-93 16.5l25 187q-218 24 -329.5 167.5t-111.5 366.5z" />
<glyph unicode="&#xe8;" horiz-adv-x="1122" d="M51 535q0 140 42 249.5t116 177t170 102t209 34.5q247 0 365 -133.5t118 -376.5q0 -94 -4 -117h-612q0 -121 37 -171t124 -50q127 0 150 131l303 -74q-29 -153 -149.5 -242.5t-325.5 -89.5q-119 0 -213 30.5t-155 82.5t-101 124.5t-57 152t-17 170.5zM268 1518h396 l124 -332l-249 -15zM459 670h217q7 176 -105 176q-49 0 -81 -42t-31 -134z" />
<glyph unicode="&#xe9;" horiz-adv-x="1122" d="M51 535q0 140 42 249.5t116 177t170 102t209 34.5q247 0 365 -133.5t118 -376.5q0 -94 -4 -117h-612q0 -121 37 -171t124 -50q127 0 150 131l303 -74q-29 -153 -149.5 -242.5t-325.5 -89.5q-119 0 -213 30.5t-155 82.5t-101 124.5t-57 152t-17 170.5zM393 1186l125 332 h395l-270 -347zM459 670h217q7 176 -105 176q-49 0 -81 -42t-31 -134z" />
<glyph unicode="&#xea;" horiz-adv-x="1122" d="M51 535q0 140 42 249.5t116 177t170 102t209 34.5q247 0 365 -133.5t118 -376.5q0 -94 -4 -117h-612q0 -121 37 -171t124 -50q127 0 150 131l303 -74q-29 -153 -149.5 -242.5t-325.5 -89.5q-119 0 -213 30.5t-155 82.5t-101 124.5t-57 152t-17 170.5zM203 1188l207 336 h362l193 -336l-242 -10l-131 172l-141 -174zM459 670h217q7 176 -105 176q-49 0 -81 -42t-31 -134z" />
<glyph unicode="&#xeb;" horiz-adv-x="1122" d="M51 535q0 140 42 249.5t116 177t170 102t209 34.5q247 0 365 -133.5t118 -376.5q0 -94 -4 -117h-612q0 -121 37 -171t124 -50q127 0 150 131l303 -74q-29 -153 -149.5 -242.5t-325.5 -89.5q-119 0 -213 30.5t-155 82.5t-101 124.5t-57 152t-17 170.5zM152 1366 q0 80 54 128t144 48q88 0 142.5 -48.5t54.5 -127.5t-54.5 -127.5t-142.5 -48.5q-90 0 -144 48t-54 128zM459 670h217q7 176 -105 176q-49 0 -81 -42t-31 -134zM627 1366q0 79 55 127.5t143 48.5q90 0 143.5 -48t53.5 -128t-53.5 -128t-143.5 -48q-88 0 -143 48.5t-55 127.5z " />
<glyph unicode="&#xec;" horiz-adv-x="571" d="M-33 1518h395l125 -332l-249 -15zM96 0v1075h383v-1075h-383z" />
<glyph unicode="&#xed;" horiz-adv-x="571" d="M92 1186l125 332h395l-270 -347zM96 0v1075h383v-1075h-383z" />
<glyph unicode="&#xee;" horiz-adv-x="571" d="M-98 1188l207 336h362l193 -336l-242 -10l-131 172l-141 -174zM96 0v1075h383v-1075h-383z" />
<glyph unicode="&#xef;" horiz-adv-x="571" d="M-150 1366q0 80 54 128t145 48q88 0 142.5 -48.5t54.5 -127.5t-54.5 -127.5t-142.5 -48.5q-91 0 -145 48t-54 128zM96 0v1075h383v-1075h-383zM326 1366q0 79 55 127.5t143 48.5q90 0 143.5 -48t53.5 -128t-53.5 -128t-143.5 -48q-88 0 -143 48.5t-55 127.5z" />
<glyph unicode="&#xf0;" horiz-adv-x="1218" d="M45 518q0 107 28 199.5t83 165.5t145.5 115t206.5 42q102 0 219 -36l10 12q-35 58 -95 108.5t-130.5 84.5t-125.5 55t-110 36l138 314q183 -43 323 -123l228 158l168 -236l-168 -113q202 -244 202 -638q0 -342 -143 -514.5t-440 -172.5q-270 0 -404.5 144.5t-134.5 398.5 zM446 520q0 -84 12 -142.5t34.5 -89t49 -43t62.5 -12.5q77 0 125.5 77.5t48.5 256.5q0 99 -12 185q-71 39 -156 39q-39 0 -66 -9.5t-51 -37t-35.5 -83t-11.5 -141.5z" />
<glyph unicode="&#xf1;" horiz-adv-x="1196" d="M88 0v1075h340l18 -104q123 127 320 127q180 0 263 -87.5t83 -273.5v-737h-383v670q0 71 -27.5 102t-80.5 31q-44 0 -84 -18t-66 -44v-741h-383zM217 1198q-18 142 40.5 230t178.5 88q58 0 114 -21.5t103 -43t84 -21.5q31 0 41 18t10 63l181 -10q19 -137 -28.5 -223 t-166.5 -86q-63 0 -122 22t-105.5 44t-79.5 22q-37 0 -49 -19t-2 -71z" />
<glyph unicode="&#xf2;" horiz-adv-x="1214" d="M51 532q0 266 142.5 416t427.5 150q144 0 250 -40t169 -114t93 -171.5t30 -219.5q0 -273 -140 -425.5t-431 -152.5q-541 0 -541 557zM295 1518h395l125 -332l-250 -15zM453 541q0 -176 32.5 -242t122.5 -66q83 0 119.5 68t36.5 242q0 167 -33.5 229t-116.5 62 q-87 0 -124 -62t-37 -231z" />
<glyph unicode="&#xf3;" horiz-adv-x="1214" d="M51 532q0 266 142.5 416t427.5 150q144 0 250 -40t169 -114t93 -171.5t30 -219.5q0 -273 -140 -425.5t-431 -152.5q-541 0 -541 557zM440 1186l125 332h396l-271 -347zM453 541q0 -176 32.5 -242t122.5 -66q83 0 119.5 68t36.5 242q0 167 -33.5 229t-116.5 62 q-87 0 -124 -62t-37 -231z" />
<glyph unicode="&#xf4;" horiz-adv-x="1214" d="M51 532q0 266 142.5 416t427.5 150q144 0 250 -40t169 -114t93 -171.5t30 -219.5q0 -273 -140 -425.5t-431 -152.5q-541 0 -541 557zM229 1188l207 336h363l192 -336l-241 -10l-132 172l-141 -174zM453 541q0 -176 32.5 -242t122.5 -66q83 0 119.5 68t36.5 242 q0 167 -33.5 229t-116.5 62q-87 0 -124 -62t-37 -231z" />
<glyph unicode="&#xf5;" horiz-adv-x="1214" d="M51 532q0 266 142.5 416t427.5 150q144 0 250 -40t169 -114t93 -171.5t30 -219.5q0 -273 -140 -425.5t-431 -152.5q-541 0 -541 557zM242 1198q-18 142 40.5 230t178.5 88q58 0 114 -21.5t103 -43t84 -21.5q31 0 41 18t10 63l180 -10q19 -137 -28 -223t-166 -86 q-63 0 -122 22t-105.5 44t-79.5 22q-37 0 -49.5 -19t-2.5 -71zM453 541q0 -176 32.5 -242t122.5 -66q83 0 119.5 68t36.5 242q0 167 -33.5 229t-116.5 62q-87 0 -124 -62t-37 -231z" />
<glyph unicode="&#xf6;" horiz-adv-x="1214" d="M51 532q0 266 142.5 416t427.5 150q144 0 250 -40t169 -114t93 -171.5t30 -219.5q0 -273 -140 -425.5t-431 -152.5q-541 0 -541 557zM178 1366q0 80 54 128t145 48q88 0 142 -48.5t54 -127.5t-54 -127.5t-142 -48.5q-91 0 -145 48t-54 128zM453 541q0 -176 32.5 -242 t122.5 -66q83 0 119.5 68t36.5 242q0 167 -33.5 229t-116.5 62q-87 0 -124 -62t-37 -231zM653 1366q0 79 55.5 127.5t143.5 48.5q90 0 143.5 -48t53.5 -128t-53.5 -128t-143.5 -48q-88 0 -143.5 48.5t-55.5 127.5z" />
<glyph unicode="&#xf7;" d="M180 516v283h805v-283h-805zM401 305q0 73 46 118.5t135 45.5q88 0 133 -45.5t45 -118.5q0 -77 -44 -119.5t-134 -42.5q-181 0 -181 162zM401 1008q0 73 46 118t135 45q88 0 133 -45t45 -118q0 -77 -44 -119.5t-134 -42.5q-181 0 -181 162z" />
<glyph unicode="&#xf8;" horiz-adv-x="1214" d="M51 532q0 266 142.5 416t427.5 150q11 0 31 -1t32 -1l55 121h336l-98 -218q186 -136 186 -446q0 -273 -140 -425.5t-431 -152.5q-9 0 -27.5 1t-27.5 1l-64 -155h-336l109 244q-195 135 -195 466zM453 541q0 -176 32.5 -242t122.5 -66q83 0 119.5 68t36.5 242 q0 167 -33.5 229t-116.5 62q-87 0 -124 -62t-37 -231z" />
<glyph unicode="&#xf9;" horiz-adv-x="1179" d="M84 330v745h383v-669q0 -73 23 -103.5t77 -30.5q39 0 78 18.5t64 43.5v741h383v-1075h-328l-29 123q-49 -69 -130 -108.5t-187 -39.5q-334 0 -334 355zM262 1518h395l125 -332l-250 -15z" />
<glyph unicode="&#xfa;" horiz-adv-x="1179" d="M84 330v745h383v-669q0 -73 23 -103.5t77 -30.5q39 0 78 18.5t64 43.5v741h383v-1075h-328l-29 123q-49 -69 -130 -108.5t-187 -39.5q-334 0 -334 355zM397 1186l125 332h396l-271 -347z" />
<glyph unicode="&#xfb;" horiz-adv-x="1179" d="M84 330v745h383v-669q0 -73 23 -103.5t77 -30.5q39 0 78 18.5t64 43.5v741h383v-1075h-328l-29 123q-49 -69 -130 -108.5t-187 -39.5q-334 0 -334 355zM207 1188l207 336h362l193 -336l-242 -10l-131 172l-141 -174z" />
<glyph unicode="&#xfc;" horiz-adv-x="1179" d="M84 330v745h383v-669q0 -73 23 -103.5t77 -30.5q39 0 78 18.5t64 43.5v741h383v-1075h-328l-29 123q-49 -69 -130 -108.5t-187 -39.5q-334 0 -334 355zM156 1366q0 80 54 128t144 48q88 0 142.5 -48.5t54.5 -127.5t-54.5 -127.5t-142.5 -48.5q-90 0 -144 48t-54 128z M631 1366q0 79 55 127.5t143 48.5q90 0 143.5 -48t53.5 -128t-53.5 -128t-143.5 -48q-88 0 -143 48.5t-55 127.5z" />
<glyph unicode="&#xfd;" horiz-adv-x="1128" d="M-23 1075h412l182 -698h9l176 698h395q-88 -254 -408 -1155q-37 -105 -73 -171.5t-86.5 -115t-116.5 -69.5t-158 -21q-65 0 -141.5 13.5t-110.5 33.5l25 265q95 -33 158 -33q34 0 56.5 8.5t40 31.5t27.5 44t27 65zM381 1186l125 332h395l-270 -347z" />
<glyph unicode="&#xfe;" horiz-adv-x="1226" d="M92 -434v1980h377v-571q112 123 299 123q84 0 153.5 -29.5t126 -91t88 -167.5t31.5 -249q0 -154 -33.5 -269t-93 -183t-136 -101t-169.5 -33q-97 0 -158 25t-112 76v-510h-373zM473 319q67 -51 137 -51q76 0 115 65.5t39 213.5q0 55 -6 96.5t-21.5 80t-47.5 59t-79 20.5 q-34 0 -71.5 -16.5t-65.5 -41.5v-426z" />
<glyph unicode="&#xff;" horiz-adv-x="1128" d="M-23 1075h412l182 -698h9l176 698h395q-88 -254 -408 -1155q-37 -105 -73 -171.5t-86.5 -115t-116.5 -69.5t-158 -21q-65 0 -141.5 13.5t-110.5 33.5l25 265q95 -33 158 -33q34 0 56.5 8.5t40 31.5t27.5 44t27 65zM139 1366q0 80 54 128t145 48q88 0 142.5 -48.5 t54.5 -127.5t-54.5 -127.5t-142.5 -48.5q-91 0 -145 48t-54 128zM614 1366q0 79 55.5 127.5t143.5 48.5q90 0 143.5 -48t53.5 -128t-53.5 -128t-143.5 -48q-88 0 -143.5 48.5t-55.5 127.5z" />
<glyph unicode="&#x152;" horiz-adv-x="2174" d="M61 731q0 167 46.5 308t134.5 246.5t226.5 164.5t313.5 59q118 0 198 -26.5t155 -85.5v86h944v-307h-592v-291h559v-301h-559v-275h637v-309h-989v84q-67 -49 -168 -79t-199 -30q-186 0 -324 55.5t-220.5 158t-122.5 238t-40 304.5zM467 739q0 -248 77.5 -352t237.5 -104 q70 0 123.5 22t96.5 70.5t66.5 134t25.5 205.5v51q-4 229 -79 332.5t-220 103.5q-163 0 -245.5 -110.5t-82.5 -352.5z" />
<glyph unicode="&#x153;" horiz-adv-x="1810" d="M51 532q0 265 138 415.5t405 150.5q128 0 212 -39t155 -119q58 71 148 114.5t206 43.5q220 0 332 -135t112 -375q0 -94 -4 -117h-612q0 -121 37.5 -171t124.5 -50q126 0 149 131l303 -74q-30 -151 -144.5 -241.5t-295.5 -90.5q-129 0 -223.5 49t-145.5 119 q-140 -168 -379 -168q-138 0 -239.5 40.5t-161.5 116t-88.5 174.5t-28.5 226zM453 541q0 -176 32.5 -242t122.5 -66q83 0 119.5 68t36.5 242q0 167 -33.5 229t-116.5 62q-87 0 -124 -62t-37 -231zM1147 670h217q7 176 -104 176q-49 0 -81.5 -42t-31.5 -134z" />
<glyph unicode="&#x178;" horiz-adv-x="1290" d="M-51 1483h428l285 -590h12l272 590h395l-483 -934q0 -91 1 -274.5t1 -274.5h-395v547zM227 1765q0 80 54.5 128.5t144.5 48.5q88 0 142.5 -49t54.5 -128t-54.5 -127.5t-142.5 -48.5q-91 0 -145 48t-54 128zM715 1765q0 79 55 128t143 49q90 0 143.5 -48.5t53.5 -128.5 t-53.5 -128t-143.5 -48q-88 0 -143 48.5t-55 127.5z" />
<glyph unicode="&#x2c6;" horiz-adv-x="1024" d="M127 1188l207 336h362l193 -336l-242 -10l-131 172l-141 -174z" />
<glyph unicode="&#x2dc;" horiz-adv-x="1024" d="M139 1198q-18 142 40.5 230t178.5 88q58 0 114 -21.5t103 -43t84 -21.5q31 0 41.5 18t10.5 63l180 -10q19 -137 -28.5 -223t-166.5 -86q-63 0 -122 22t-105.5 44t-79.5 22q-37 0 -49 -19t-2 -71z" />
<glyph unicode="&#x2000;" horiz-adv-x="971" />
<glyph unicode="&#x2001;" horiz-adv-x="1942" />
<glyph unicode="&#x2002;" horiz-adv-x="971" />
<glyph unicode="&#x2003;" horiz-adv-x="1942" />
<glyph unicode="&#x2004;" horiz-adv-x="647" />
<glyph unicode="&#x2005;" horiz-adv-x="485" />
<glyph unicode="&#x2006;" horiz-adv-x="323" />
<glyph unicode="&#x2007;" horiz-adv-x="323" />
<glyph unicode="&#x2008;" horiz-adv-x="242" />
<glyph unicode="&#x2009;" horiz-adv-x="388" />
<glyph unicode="&#x200a;" horiz-adv-x="107" />
<glyph unicode="&#x2010;" horiz-adv-x="636" d="M41 440v308h555v-308h-555z" />
<glyph unicode="&#x2011;" horiz-adv-x="636" d="M41 440v308h555v-308h-555z" />
<glyph unicode="&#x2012;" horiz-adv-x="636" d="M41 440v308h555v-308h-555z" />
<glyph unicode="&#x2013;" horiz-adv-x="1024" d="M0 440v267h1024v-267h-1024z" />
<glyph unicode="&#x2014;" horiz-adv-x="2048" d="M0 440v267h2048v-267h-2048z" />
<glyph unicode="&#x2018;" horiz-adv-x="497" d="M18 1110l191 520l274 -26l-108 -494h-357z" />
<glyph unicode="&#x2019;" horiz-adv-x="497" d="M37 1120l108 494h357l-191 -520z" />
<glyph unicode="&#x201a;" horiz-adv-x="499" d="M10 -291l109 494h356l-190 -520z" />
<glyph unicode="&#x201c;" horiz-adv-x="909" d="M18 1110l191 520l274 -26l-108 -494h-357zM430 1110l191 520l274 -26l-109 -494h-356z" />
<glyph unicode="&#x201d;" horiz-adv-x="907" d="M37 1120l108 494h357l-191 -520zM446 1120l109 494h356l-190 -520z" />
<glyph unicode="&#x201e;" horiz-adv-x="913" d="M10 -291l109 494h356l-190 -520zM424 -291l108 494h357l-191 -520z" />
<glyph unicode="&#x2022;" horiz-adv-x="1024" d="M186 571q0 314 326 314q161 0 244.5 -78.5t83.5 -235.5q0 -313 -328 -313q-326 0 -326 313z" />
<glyph unicode="&#x2026;" horiz-adv-x="1662" d="M72 178q0 205 223 205q219 0 219 -205q0 -203 -219 -203q-116 0 -169.5 49.5t-53.5 153.5zM610 178q0 205 224 205q219 0 219 -205q0 -203 -219 -203q-116 0 -170 49.5t-54 153.5zM1149 178q0 205 223 205q219 0 219 -205q0 -203 -219 -203q-116 0 -169.5 49.5 t-53.5 153.5z" />
<glyph unicode="&#x202f;" horiz-adv-x="388" />
<glyph unicode="&#x2039;" horiz-adv-x="573" d="M51 524l182 312h299l-184 -304l172 -321h-295z" />
<glyph unicode="&#x203a;" horiz-adv-x="573" d="M41 836h299l182 -312l-174 -313h-295l174 317z" />
<glyph unicode="&#x205f;" horiz-adv-x="485" />
<glyph unicode="&#x20ac;" horiz-adv-x="1359" d="M45 590l49 293h117q30 294 180 461t420 167q495 0 508 -510l-328 -34q-7 136 -47 189.5t-133 53.5q-99 0 -152.5 -78.5t-66.5 -248.5h364l-49 -293h-315q13 -164 63.5 -237.5t145.5 -73.5q52 0 86.5 14.5t55.5 47.5t31.5 66t22.5 91l318 -52q-12 -107 -51.5 -191 t-92.5 -135.5t-121.5 -85t-133.5 -46.5t-134 -13q-279 0 -415.5 157t-157.5 458h-164z" />
<glyph unicode="&#x2122;" horiz-adv-x="1781" d="M102 1329v154h648v-154h-230v-616h-190v616h-228zM840 715v768h215l192 -570l195 570h203v-770h-170v458l-160 -458h-150l-155 461v-459h-170z" />
<glyph unicode="&#x25fc;" horiz-adv-x="1075" d="M0 0v1075h1075v-1075h-1075z" />
</font>
</defs>
</svg>
